<svg width="732" height="2150" viewBox="0 0 732 2150" fill="none" xmlns="http://www.w3.org/2000/svg">
<path d="M494.723 1969.12C489.883 1988.9 480.433 2031.84 487.293 2041C496.283 2052.98 559.253 2067.14 591.173 2072.46C624.143 2077.95 668.453 2073.31 676.523 2068.04C685.063 2062.47 691.243 2042.82 679.303 2037.56C667.373 2032.3 623.643 2012.03 606.163 2002.04C586.943 1991.06 573.203 1978.3 564.263 1968.3C540.743 1977.37 511.143 1972.89 494.723 1969.12Z" fill="#1A1F24"/>
<path d="M199.857 1978.49C193.443 2013.99 180.591 2088.2 182.883 2100.44C184.631 2109.77 181.003 2148.9 233.976 2149.53C290.426 2150.2 292.625 2131.68 295.771 2120.21C301.287 2100.1 281.284 1995.44 276.775 1972.46C252.501 1985.61 219.908 1982.41 199.857 1978.49Z" fill="#242A31"/>
<path d="M486.513 385.613C485.733 384.646 484.833 383.843 483.793 383.188C463.323 370.323 439.153 362.441 421.923 358.007C418.273 362.85 392.445 396.342 372.395 401.668C373.88 445.048 374.821 474.643 376.361 519.42C376.389 520.213 375.768 520.877 374.976 520.905C374.183 520.932 373.519 520.312 373.491 519.519C371.956 474.891 371.017 445.351 369.541 402.218C369.172 402.265 368.798 402.33 368.434 402.355C309.784 406.265 245.436 359.505 242.71 357.503C208.614 363.91 152.977 377.931 132.997 403.655C132.982 403.736 132.973 403.812 132.958 403.892C122.332 413.682 85.0007 481.805 48.0537 536.201C49.2037 538.225 50.4437 540.22 51.7167 542.202C70.4047 571.284 101.581 595.733 124.378 611.483C128.161 614.097 131.73 616.49 134.954 618.605C138.309 614.194 141.812 609.31 145.374 604.111C145.054 604.146 144.721 604.095 144.43 603.904C143.767 603.469 143.582 602.579 144.017 601.916C163.123 572.8 182.23 543.683 201.336 514.567C206.103 507.313 210.834 499.999 212.849 491.889C213.732 488.347 214.089 484.709 214.089 481.019C214.09 475.687 213.34 470.253 212.373 464.9C207.646 438.723 198.037 413.429 184.191 390.715C183.778 390.038 183.993 389.154 184.67 388.741C185.347 388.329 186.231 388.543 186.643 389.22C200.675 412.238 210.408 437.861 215.198 464.389C216.178 469.82 216.959 475.418 216.96 481.019C216.96 484.892 216.585 488.77 215.634 492.583C213.449 501.32 208.494 508.88 203.736 516.142C190.539 536.253 177.342 556.364 164.145 576.475C164.152 576.536 164.161 576.593 164.168 576.654C170.643 632.337 177.028 683.363 174.838 745.693L209.378 793.106C209.378 793.106 226.533 809.261 233.088 819.561C239.643 829.862 234.399 854.771 224.847 862.262C215.295 869.753 199.189 873.499 193.009 874.435C186.829 875.371 167.726 874.061 166.976 868.63C166.712 866.719 170.182 864.861 174.757 863.247C172.763 861.889 171.187 859.946 171.47 857.205C171.663 855.342 174.588 853.839 178.321 852.658C177.348 851.683 176.756 850.481 176.939 849.002C177.134 847.425 180.116 846.155 183.903 845.161C179.169 839.236 174.551 832.447 173.53 827.427C172.775 823.714 173.464 820.817 174.174 819.008C172.547 817.901 170.325 816.382 167.597 814.497C157.145 869.299 137.496 932.346 144.688 940.736C145.282 941.426 147.378 942.066 150.707 942.656C197.779 950.986 498.873 949.036 507.273 939.236C507.303 939.206 507.323 939.146 507.353 939.116C516.133 928.266 498.633 857.241 496.783 807.388C494.573 748.06 497.963 703.625 500.473 661.731C501.683 641.631 502.673 622.09 502.753 601.806C527.143 584.996 544.483 563.581 556.913 544.147C558.143 542.227 559.323 540.324 560.463 538.449C544.513 496.214 518.553 408.992 486.513 385.613Z" fill="#EF7853"/>
<path d="M383.062 1102.1C383.062 1102.1 374.997 1176.23 363.45 1281.12L396.426 1414.44C396.426 1414.44 394.467 1510.09 397.463 1542.05C400.459 1574.01 482.303 1965.78 482.303 1965.78C482.303 1965.78 487.103 1967.37 494.723 1969.12C511.143 1972.89 540.743 1977.36 564.263 1968.3C569.763 1966.18 574.943 1963.35 579.533 1959.56C582.873 1950.05 514.763 1057.6 513.263 997.666C513.263 997.666 453.483 1069.13 383.062 1102.1Z" fill="#242A31"/>
<path d="M150.712 942.656C144.638 965.016 139.731 990.576 140.335 1013.51C142.412 1092.46 152.158 1353.86 160.674 1510.08C169.934 1679.95 174.549 1937.17 181.639 1973.98C181.639 1973.98 188.873 1976.34 199.857 1978.49C219.909 1982.41 252.501 1985.61 276.775 1972.46C279.088 1971.2 281.334 1969.82 283.478 1968.25C288.406 1957.69 335.867 1531.66 363.45 1281.12C374.998 1176.23 383.062 1102.1 383.062 1102.1C453.483 1069.13 513.263 997.666 513.263 997.666L512.943 994.456L507.353 939.116C507.323 939.156 507.303 939.206 507.273 939.236C498.883 949.026 197.784 950.986 150.712 942.656Z" fill="#313942"/>
<path  class="skintone" d="M451.673 158.903C443.023 155.897 431.613 156.764 430.473 155.9C425.603 152.199 426.573 145.121 432.483 143.175C433.473 142.797 442.583 144.049 451.603 147.636C453.853 148.528 455.913 149.476 457.573 150.677L457.683 150.798C457.643 143.801 457.603 137.263 457.633 131.365C455.823 114.876 450.993 83.8389 439.853 76.2329C400.896 115.562 342.089 135.04 312.124 126.425C299.336 131.944 315.71 182.069 299.739 192.429C298.862 186.847 294.914 166.977 282.973 165.512C277.105 164.792 270.011 172.47 270.899 186.68C271.839 201.732 279.181 213.521 285.034 214.137C288.397 214.491 291.013 213.968 293.056 212.903C293.705 225.446 295.028 240.877 294.365 252.304C293.991 272.908 291.36 296.551 284.097 320.18C294.26 328.932 328.079 355.678 358.945 352.914C381.272 350.915 392.445 344.481 397.433 340.412C393.752 320.06 394.693 295.183 394.693 295.183C394.693 295.183 422.149 298.003 438.853 287.239C456.413 275.92 457.563 194.022 457.683 180.124C457.753 173.705 457.753 167.42 457.733 161.336C456.153 160.685 454.263 159.778 451.673 158.903Z" fill="#F4A29E"/>
<path d="M293.057 212.902C291.013 213.967 288.398 214.49 285.034 214.136C279.181 213.521 271.839 201.731 270.899 186.679C270.011 172.469 277.105 164.791 282.973 165.511C294.915 166.976 298.861 186.846 299.739 192.428C315.71 182.068 299.335 131.942 312.124 126.424C342.089 135.039 400.896 115.561 439.853 76.2318C450.993 83.8378 455.823 114.875 457.633 131.364C458.323 137.611 458.583 141.781 458.583 141.781C458.583 141.781 474.473 105.418 461.573 62.7468C480.303 47.0148 487.793 14.8018 473.563 2.06683C459.333 -10.6682 394.904 40.6478 343.213 15.1768C329.185 8.26382 322.238 37.2758 322.238 37.2758C322.238 37.2758 314.746 29.4098 301.636 33.5298C288.526 37.6498 254.815 70.9868 251.819 105.447C249.514 131.95 259.31 143.653 259.31 143.653C259.31 143.653 257.326 169.637 261.557 190.099C268.292 222.666 285.407 251.932 294.306 253.472C294.333 253.096 294.343 252.687 294.366 252.302C295.028 240.875 293.706 225.444 293.057 212.902Z" fill="#583636"/>
<path d="M451.603 147.635C442.583 144.049 433.473 142.797 432.483 143.174C426.573 145.121 425.603 152.198 430.473 155.9C431.613 156.765 443.023 155.897 451.673 158.903C454.263 159.778 456.153 160.684 457.733 161.334C457.833 161.375 457.953 161.425 458.043 161.464C459.693 162.117 459.543 152.542 457.683 150.797C457.643 150.76 457.613 150.706 457.563 150.676C455.913 149.475 453.853 148.528 451.603 147.635Z" fill="#583636"/>
<path d="M344.785 164.629C348.262 162.997 350.466 161.091 360.296 158.952C370.516 156.647 383.394 158.432 384.794 157.66C390.791 154.356 390.572 147.212 384.085 144.792C383.005 144.335 372.484 144.852 361.78 147.707C351.063 150.545 344.928 156.275 344.041 157.563C341.184 161.661 342.739 165.589 344.785 164.629Z" fill="#583636"/>
<path d="M280.36 170.583C279.849 169.976 278.943 169.899 278.337 170.409C277.73 170.92 277.653 171.825 278.164 172.432L278.25 172.538C279.095 173.564 285.511 181.933 286.964 193.195C286.942 193.17 286.926 193.141 286.903 193.116C285.216 191.257 282.829 189.849 280.043 189.844C279.382 189.844 278.705 189.925 278.025 190.095C277.255 190.288 276.788 191.067 276.98 191.836C277.173 192.606 277.952 193.073 278.721 192.881C279.176 192.767 279.615 192.716 280.042 192.715C281.814 192.711 283.488 193.631 284.777 195.046C286.062 196.448 286.872 198.32 286.943 199.801C286.956 200.04 287.041 200.251 287.155 200.443C287.154 200.454 287.155 200.463 287.154 200.474C287.09 201.264 287.679 201.957 288.469 202.021C289.259 202.085 289.952 201.497 290.016 200.706C290.098 199.699 290.136 198.707 290.136 197.731C290.106 182.102 280.441 170.708 280.36 170.583Z" fill="#DF8080"/>
<path d="M409.831 217.138C411.2 218.024 412.888 218.25 414.739 218.264C417.158 218.261 419.875 217.787 422.299 217.062C424.733 216.311 426.813 215.407 428.133 214.118C428.693 213.556 428.693 212.646 428.123 212.088C427.563 211.529 426.653 211.533 426.093 212.096C425.513 212.724 423.643 213.681 421.473 214.312C419.298 214.968 416.778 215.397 414.74 215.393C413.183 215.408 411.92 215.107 411.425 214.75C410.765 214.31 409.874 214.488 409.434 215.148C408.993 215.807 409.171 216.698 409.831 217.138Z" fill="#DF8080"/>
<path d="M423.293 205.612C423.903 205.098 423.973 204.191 423.453 203.588C418.014 197.23 415.194 187.189 415.091 178.388C415.081 177.595 414.429 176.961 413.637 176.971C412.844 176.982 412.21 177.633 412.22 178.426C412.358 187.783 415.227 198.324 421.271 205.451C421.785 206.054 422.691 206.126 423.293 205.612Z" fill="#DF8080"/>
<path d="M485.923 426.249C485.153 426.454 484.693 427.241 484.903 428.007C488.523 441.519 491.523 462.396 494.323 490.289C494.203 490.796 494.113 491.307 493.983 491.813C493.833 492.429 494.113 493.036 494.623 493.356C497.163 519.157 499.543 550.71 502.093 587.989C502.153 588.781 502.833 589.378 503.623 589.324C504.413 589.27 505.013 588.584 504.963 587.793C502.313 549.22 499.863 516.777 497.223 490.455C501.353 472.593 502.313 454.332 502.313 436.092C502.313 431.431 502.253 426.77 502.163 422.118C502.153 421.325 501.503 420.694 500.703 420.708C499.913 420.722 499.283 421.376 499.293 422.169C499.383 426.811 499.443 431.455 499.443 436.092C499.443 451.169 498.773 466.171 496.223 480.873C493.683 457.457 490.943 439.511 487.673 427.266C487.473 426.5 486.683 426.045 485.923 426.249Z" fill="#CC4031"/>
<path d="M440.723 184.979C443.823 184.979 446.333 181.667 446.333 177.582C446.333 173.496 443.823 170.184 440.723 170.184C437.613 170.184 435.103 173.496 435.103 177.582C435.103 181.667 437.613 184.979 440.723 184.979Z" fill="#583636"/>
<path d="M369.55 177.098C369.55 181.864 372.485 185.728 376.105 185.728C379.725 185.728 382.66 181.864 382.66 177.098C382.66 172.331 379.725 168.467 376.105 168.467C372.485 168.467 369.55 172.331 369.55 177.098Z" fill="#583636"/>
<path d="M386.411 235.388C386.185 236.148 386.618 236.947 387.378 237.174C388.304 237.442 389.657 237.613 391.531 237.785C397.102 238.282 406.9 238.562 416.396 238.562C422.068 238.562 427.623 238.462 432.083 238.244C434.313 238.135 436.273 237.997 437.853 237.824C439.453 237.642 440.603 237.464 441.483 237.14C442.233 236.858 442.603 236.029 442.323 235.287C442.033 234.546 441.203 234.174 440.463 234.456C440.133 234.595 439.013 234.815 437.543 234.97C433.053 235.463 424.843 235.693 416.397 235.691C410.108 235.691 403.668 235.566 398.47 235.338C395.871 235.225 393.582 235.085 391.788 234.925C390.009 234.771 388.665 234.568 388.198 234.421C387.436 234.195 386.636 234.628 386.411 235.388Z" fill="#583636"/>
<path class="skintone" d="M730.703 390.868C728.643 387.684 723.373 389.345 723.373 389.345C723.373 389.345 722.523 382.627 720.773 381.129C719.033 379.631 712.723 383.564 712.723 383.564C712.723 383.564 713.163 376.322 711.413 375.324C709.663 374.325 703.363 377.759 703.363 377.759C703.363 377.759 716.983 329.701 713.533 327.941C710.093 326.182 686.063 371.391 686.063 371.391C686.063 371.391 675.083 369.893 670.083 375.886C665.433 381.469 662.083 429.956 661.643 436.569C661.613 437.055 661.593 437.315 661.593 437.315L568.703 587.891C568.703 587.891 564.013 568.169 556.913 544.146C544.483 563.581 527.153 584.995 502.753 601.805C502.673 622.089 501.683 641.631 500.483 661.73C510.813 683.532 525.123 701.583 544.733 705.504C589.673 714.494 639.123 659.807 655.603 617.106C666.303 589.387 699.683 456.347 699.683 456.347C699.683 456.347 719.683 429.916 724.523 420.645C733.323 403.791 732.173 393.136 730.703 390.868Z" fill="#F4A29E"/>
<path d="M724.263 409.184C723.523 408.913 722.693 409.297 722.423 410.042C721.703 412.026 720.543 414.725 718.363 417.76C717.853 418.477 717.243 419.202 716.633 419.693C716.013 420.195 715.453 420.422 715.023 420.415L714.633 420.36C714.163 420.222 713.843 419.924 713.543 419.286C713.243 418.662 713.093 417.759 713.093 416.887L713.123 416.275C713.333 413.501 714.173 410.768 715.543 408.352L713.053 406.926C709.983 412.299 706.653 417.674 701.573 420.022C701.103 420.248 700.523 420.402 700.163 420.395C699.813 420.382 699.773 420.325 699.723 420.27C699.673 420.242 699.553 419.92 699.533 419.38V419.378L699.513 418.652C699.493 413.49 702.573 408.424 705.763 403.604V403.602C705.783 403.574 705.803 403.55 705.813 403.522L703.373 402.025C703.243 402.219 703.113 402.42 702.983 402.616C701.423 405.281 699.563 407.775 697.403 409.987C695.933 411.503 694.333 412.734 692.743 412.889L692.453 412.905C691.793 412.911 691.033 412.642 690.523 412.23C689.993 411.808 689.753 411.345 689.753 410.886L689.763 410.826C689.783 410.388 689.583 410 689.293 409.722C689.743 407.269 689.993 404.778 689.993 402.283C689.993 401.832 689.923 401.384 689.913 400.934C691.613 402.295 693.623 403.689 696.223 403.722L696.623 403.71C698.593 403.591 700.263 402.55 701.433 401.171C702.603 399.783 703.343 398.034 703.513 396.221L703.523 396.219L703.563 395.209C703.553 392.1 702.303 389.277 700.963 386.803C697.803 380.995 693.533 375.801 688.453 371.579C687.843 371.073 686.933 371.157 686.423 371.767C685.923 372.377 686.003 373.283 686.613 373.789C691.423 377.775 695.463 382.689 698.433 388.174C699.703 390.49 700.703 392.919 700.693 395.209L700.663 395.953C700.553 397.147 700.023 398.403 699.243 399.313C698.463 400.232 697.493 400.784 696.453 400.845L696.233 400.852C694.553 400.891 692.673 399.567 690.863 398.017C690.383 397.615 689.913 397.208 689.433 396.804C689.303 396.613 689.123 396.468 688.913 396.362C686.293 394.098 683.843 391.76 682.123 388.995C681.703 388.322 680.813 388.117 680.143 388.537C679.463 388.956 679.263 389.842 679.683 390.515C681.633 393.631 684.233 396.115 686.883 398.405C687.023 399.694 687.123 400.988 687.123 402.285C687.123 407.17 686.173 412.061 684.323 416.579C684.023 417.313 684.373 418.151 685.103 418.452C685.843 418.753 686.673 418.401 686.983 417.667C687.463 416.476 687.893 415.261 688.263 414.03C688.413 414.188 688.573 414.352 688.743 414.486C689.793 415.306 691.093 415.773 692.453 415.778L693.063 415.745C694.743 415.543 696.123 414.783 697.323 413.87C696.913 415.41 696.653 417.001 696.643 418.654L696.673 419.54V419.538C696.723 420.21 696.773 421.17 697.493 422.084C698.213 422.978 699.293 423.282 700.163 423.268C701.153 423.262 702.033 422.973 702.793 422.625C705.833 421.188 708.223 418.992 710.243 416.493L710.223 416.89C710.223 418.073 710.403 419.329 710.933 420.484C711.433 421.625 712.413 422.727 713.853 423.127C714.243 423.237 714.643 423.29 715.023 423.289C716.393 423.283 717.523 422.661 718.433 421.927C719.353 421.182 720.093 420.278 720.703 419.435C723.063 416.139 724.353 413.162 725.123 411.026C725.393 410.279 725.013 409.455 724.263 409.184Z" fill="#DF8080"/>
<path d="M567.723 588.794C567.003 588.452 566.153 588.753 565.803 589.468C556.813 608.242 552.133 629.044 552.133 649.854C552.133 654.291 552.343 658.728 552.773 663.146C552.853 663.935 553.553 664.514 554.343 664.437C555.133 664.36 555.713 663.658 555.633 662.869C555.213 658.544 555.003 654.199 555.003 649.854C555.003 629.475 559.593 609.086 568.393 590.709C568.733 589.994 568.433 589.136 567.723 588.794Z" fill="#DF8080"/>
<path d="M368.434 402.355C368.798 402.331 369.172 402.265 369.541 402.218C371.017 445.351 371.956 474.891 373.492 519.519C373.519 520.312 374.184 520.932 374.976 520.905C375.769 520.878 376.389 520.213 376.361 519.42C374.821 474.642 373.88 445.048 372.395 401.668C392.445 396.341 418.273 362.85 421.923 358.006C422.209 357.627 422.372 357.406 422.372 357.406L400.896 336.93C400.896 336.93 399.92 338.381 397.433 340.41C392.445 344.479 381.272 350.912 358.945 352.911C328.08 355.675 294.26 328.929 284.098 320.177C282.13 318.483 281.035 317.452 281.035 317.452C281.035 317.452 271.046 334.433 261.557 343.921C252.068 353.41 242.579 357.406 242.579 357.406C242.579 357.406 242.65 357.458 242.71 357.502C245.436 359.506 309.785 406.265 368.434 402.355Z" fill="#CC4031"/>
<path d="M389.66 437.565C393.383 437.565 396.402 433.093 396.402 427.576C396.402 422.06 393.384 417.587 389.66 417.587C385.936 417.587 382.918 422.059 382.918 427.576C382.917 433.093 385.936 437.565 389.66 437.565Z" fill="#CC4031"/>
<path d="M392.407 473.024C396.131 473.024 399.149 468.552 399.149 463.035C399.149 457.519 396.13 453.047 392.407 453.047C388.684 453.047 385.665 457.519 385.665 463.035C385.664 468.552 388.683 473.024 392.407 473.024Z" fill="#CC4031"/>
<path d="M394.654 512.978C398.378 512.978 401.396 508.506 401.396 502.989C401.396 497.472 398.378 493 394.654 493C390.93 493 387.912 497.472 387.912 502.989C387.912 508.506 390.93 512.978 394.654 512.978Z" fill="#CC4031"/>
<path d="M391.264 295.22C391.448 294.448 390.972 293.674 390.201 293.49C362.011 286.77 334.765 272.198 318.346 248.598C317.893 247.947 316.998 247.787 316.347 248.24C315.696 248.694 315.536 249.588 315.989 250.239C332.969 274.615 360.862 289.44 389.533 296.283C390.305 296.468 391.079 295.992 391.264 295.22Z" fill="#DF8080"/>
<path d="M423.473 245.503C419.397 247.373 414.886 248.469 410.469 248.468C407.622 248.468 404.816 248.016 402.169 247.035C401.425 246.759 400.599 247.139 400.324 247.883C400.048 248.626 400.428 249.453 401.171 249.728C404.17 250.84 407.319 251.34 410.469 251.34C415.36 251.339 420.253 250.138 424.673 248.114C425.393 247.783 425.703 246.931 425.373 246.21C425.043 245.489 424.193 245.172 423.473 245.503Z" fill="#DF8080"/>
<path d="M183.907 845.162C180.12 846.156 177.138 847.425 176.943 849.002C176.761 850.482 177.352 851.684 178.325 852.658C174.592 853.838 171.667 855.342 171.474 857.205C171.191 859.946 172.767 861.889 174.761 863.247C183.194 860.272 195.447 858.142 195.447 858.142C195.447 858.142 189.592 852.277 183.907 845.162Z" fill="#D56C60"/>
<path class="skintone" d="M233.091 819.561C226.536 809.261 209.381 793.106 209.381 793.106L174.841 745.693L105.206 650.103L124.378 611.483C101.582 595.733 70.4048 571.284 51.7168 542.202C24.9818 576.895 -7.65416 627.898 1.60684 660.557C14.4828 705.961 132.613 790.318 167.601 814.497C170.329 816.382 172.551 817.902 174.178 819.008C173.467 820.817 172.779 823.714 173.534 827.427C174.555 832.448 179.173 839.236 183.907 845.161C189.592 852.276 195.447 858.141 195.447 858.141C195.447 858.141 183.194 860.272 174.761 863.246C170.185 864.86 166.716 866.718 166.98 868.629C167.729 874.06 186.832 875.371 193.013 874.434C199.193 873.498 215.299 869.752 224.851 862.261C234.401 854.771 239.645 829.862 233.091 819.561Z" fill="#F4A29E"/>
<path d="M102.031 647.158C88.1787 630.741 67.1547 620.688 45.6797 620.215C44.8867 620.198 44.2297 620.827 44.2127 621.619C44.1957 622.412 44.8237 623.068 45.6167 623.086C66.2357 623.528 86.5447 633.239 99.8347 649.009C100.346 649.615 101.252 649.692 101.858 649.181C102.465 648.67 102.543 647.764 102.031 647.158Z" fill="#DF8080"/>
<path d="M146.418 603.492C152.328 594.486 158.237 585.481 164.147 576.475C177.344 556.365 190.541 536.253 203.737 516.142C208.496 508.88 213.451 501.32 215.636 492.583C216.586 488.77 216.961 484.893 216.961 481.019C216.96 475.418 216.179 469.821 215.199 464.389C210.409 437.86 200.675 412.238 186.644 389.22C186.231 388.543 185.348 388.328 184.671 388.741C183.994 389.154 183.78 390.037 184.192 390.714C198.038 413.428 207.646 438.722 212.374 464.9C213.341 470.253 214.091 475.686 214.09 481.019C214.09 484.708 213.733 488.347 212.85 491.889C210.835 499.999 206.104 507.313 201.337 514.567C182.231 543.684 163.124 572.8 144.018 601.917C143.583 602.58 143.768 603.47 144.431 603.905C144.722 604.096 145.055 604.147 145.375 604.112C145.785 604.066 146.174 603.865 146.418 603.492Z" fill="#CC4031"/>
</svg>
