<?xml version="1.0" encoding="utf-8"?>
<!-- Generator: Adobe Illustrator 27.5.0, SVG Export Plug-In . SVG Version: 6.00 Build 0)  -->
<svg version="1.1" id="Ñëîé_1" xmlns="http://www.w3.org/2000/svg" xmlns:xlink="http://www.w3.org/1999/xlink" x="0px" y="0px"
	 viewBox="0 0 800 800" style="enable-background:new 0 0 800 800;" xml:space="preserve">
	<g>
		<rect x="184.974" y="776.415" style="fill:#5C81AA;" width="420.052" height="2.381"/>
		<path style="fill:#102051;" d="M371.309,236.085c0,0-0.159-1.324,6.716-1.324s35.204-0.478,37.102,1.324
		c1.898,1.801-20.852,12.676-20.852,12.676s-18.677-2.9-18.953-3.962C375.047,243.737,371.309,236.085,371.309,236.085z"/>
		<g>
			<polygon style="fill:#F2A981;" points="449.787,726.617 449.697,748.178 434.128,748.178 433.353,726.617 		"/>
			<path style="fill:#CFE6FF;" d="M431.339,742.489l21.369-1.342v12.746h-3.209l-0.575,3.881l-13.657-0.7l-2.443-3.756h-2.012
			C430.525,752.887,431.339,742.489,431.339,742.489z"/>
			<polygon style="fill:#102051;" points="452.708,753.893 432.825,753.318 430.812,753.318 433.544,754.424 434.199,755.432 
			441.57,754.372 449.171,756.112 449.326,755.061 		"/>
			<polygon style="fill:#153F6D;" points="448.924,757.774 450.314,761.669 456.543,769.034 456.543,773.515 443.742,779.384 
			427.123,774.161 427.123,768.579 434.118,762.23 435.267,757.074 		"/>
			<polygon style="fill:#152036;" points="456.543,773.059 456.543,776.605 444.468,782.93 427.123,776.808 427.123,774.161 
			443.742,779.384 		"/>
			<polygon style="fill:#152036;" points="445.308,761.669 437.833,761.669 438.539,760.41 444.037,760.41 		"/>
			<polygon style="fill:#152036;" points="446.696,764.108 436.059,764.108 437.007,762.848 446.134,762.848 		"/>
		</g>
		<g>
			<polygon style="fill:#F2A981;" points="333.972,726.617 330.961,748.178 315.393,748.178 317.539,726.617 		"/>
			<path style="fill:#CFE6FF;" d="M314.807,740.812l19.165,1.581v11.5h-3.209l-0.575,3.881l-16.819-0.862l0.719-3.594
			c0,0-0.431,0.287-0.719-0.144C313.083,752.743,314.807,740.812,314.807,740.812z"/>
			<polygon style="fill:#152036;" points="273.792,774.161 273.792,776.605 314.089,776.605 316.533,774.161 318.879,776.605 
			332.488,775.383 332.488,770.424 319.791,770.424 301.199,770.424 		"/>
			<polygon style="fill:#102051;" points="333.972,753.893 314.089,753.318 330.332,756.804 330.59,755.061 		"/>
			<path style="fill:#153F6D;" d="M330.189,757.774l2.3,3.594v9.056l-1.15,2.3l-13.225,1.294l-1.15-1.294c0,0-2.013,1.15-2.875,1.294
			c-0.863,0.144-40.297,0.144-40.297,0.144l0.097-5.04l25.969-5.022l13.512-7.187L330.189,757.774z"/>
			<polygon style="fill:#152036;" points="307.805,759.872 314.52,761.44 313.338,762.23 306.327,760.658 		"/>
			<polygon style="fill:#152036;" points="304.618,761.669 311.333,763.237 310.151,764.027 303.14,762.455 		"/>
		</g>
		<g>
			<g>
				<polygon style="fill:#F2A981;" points="340.326,400.182 332.735,492.078 321.944,492.078 318.257,394.535 			"/>
				<ellipse transform="matrix(0.2287 -0.9735 0.9735 0.2287 -133.3721 627.4838)" style="fill:#F2A981;" cx="329.292" cy="397.907" rx="11.034" ry="11.034"/>
				<circle style="fill:#F2A981;" cx="327.924" cy="492.078" r="6.048"/>
			</g>
			<g>
				<path style="fill:#356AB0;" d="M316.523,364.329c-3.004,44.449-0.121,118.593-0.121,118.593l20.83-2.393
				c0,0,1.222-9.009,2.875-13.033c1.551-3.775-0.525-3.13,0.002-9.917c0.912-11.741,2.651-39.87,4.466-65.486
				c0.592-8.354-1.053-20.533-0.596-27.765l-5.823-9.979L316.523,364.329z"/>
				<circle style="fill:#356AB0;" cx="330.514" cy="366.075" r="13.999"/>
			</g>
		</g>
		<path style="fill:#152036;" d="M418.602,478.053c14.568,1.321,26.066-17.868,40.673-17.43l-8.56-43.419h-112l-3.293,39.161
		C357.929,482.922,391.977,475.639,418.602,478.053z"/>
		<g>
			<linearGradient id="SVGID_1_" gradientUnits="userSpaceOnUse" x1="384.3836" y1="197.3599" x2="431.0503" y2="178.3599">
				<stop  offset="0" style="stop-color:#C45E59"/>
				<stop  offset="1" style="stop-color:#F2A981"/>
			</linearGradient>
			<path style="fill:url(#SVGID_1_);" d="M416.015,173.18c11.5-9.775,9.2,4.025,9.392,9.008c0.192,4.983-3.067,14.566-7.667,13.416
			C413.14,194.454,416.015,173.18,416.015,173.18z"/>
			<g>
				<path style="fill:#102051;" d="M422.583,185.096l-0.486-0.118c0.555-2.277,1.867-8.498,1.289-9.926
				c-0.292-0.719-0.866-0.892-1.296-0.91c-0.893-0.026-1.874,0.529-2.259,1.289l-0.445-0.226c0.475-0.936,1.666-1.615,2.725-1.563
				c0.815,0.034,1.434,0.468,1.738,1.222C424.605,176.733,422.666,184.755,422.583,185.096z"/>
			</g>
			<g>
				<rect x="418.854" y="183.633" transform="matrix(0.3998 -0.9166 0.9166 0.3998 83.6055 495.4455)" style="fill:#102051;" width="2.516" height="0.501"/>
			</g>
		</g>
		<g>
			<linearGradient id="SVGID_00000116198467954701055720000015371872647482736282_" gradientUnits="userSpaceOnUse" x1="409.2744" y1="209.9949" x2="364.9412" y2="180.995">
				<stop  offset="0" style="stop-color:#C45E59"/>
				<stop  offset="1" style="stop-color:#F2A981"/>
			</linearGradient>
			<path style="fill:url(#SVGID_00000116198467954701055720000015371872647482736282_);" d="M371.716,173.18
			c-11.5-9.775-9.2,4.025-9.392,9.008c-0.192,4.983,3.067,14.566,7.667,13.416C374.591,194.454,371.716,173.18,371.716,173.18z"/>
			<g>
				<path style="fill:#102051;" d="M365.031,185.096c-0.083-0.34-2.023-8.363-1.267-10.231c0.306-0.754,0.923-1.188,1.738-1.222
				c1.069-0.045,2.251,0.627,2.725,1.563l-0.446,0.226c-0.384-0.759-1.367-1.313-2.258-1.289c-0.43,0.018-1.004,0.191-1.295,0.91
				c-0.579,1.428,0.734,7.649,1.288,9.926L365.031,185.096z"/>
			</g>
			<g>
				<rect x="367.252" y="182.626" transform="matrix(0.9166 -0.3999 0.3999 0.9166 -42.87 162.3003)" style="fill:#102051;" width="0.5" height="2.515"/>
			</g>
		</g>
		<path style="fill:#F2A981;" d="M412.134,217v26.737c0.355,10.532-7.629,19.248-17.127,19.95
		c-10.437,0.772-20.273-8.313-19.96-19.95c0-8.912,0-17.825,0-26.737c0.478-9.752,8.183-17.508,17.367-18.08
		C402.409,198.298,411.569,206.347,412.134,217z"/>
		<g>
			<path style="fill:#0B131D;" d="M397.818,236.374c-0.72,0-1.889-0.152-2.992-0.963c-1.425-1.049-2.294-2.865-2.58-5.398
			l0.571-0.064c0.268,2.367,1.059,4.049,2.35,5c1.522,1.121,3.224,0.812,3.239,0.808l0.108,0.564
			C398.485,236.326,398.223,236.374,397.818,236.374z"/>
		</g>
		<path style="fill:#102051;" d="M412.134,217v11.276c-2.863,1.374-6.014,2.093-9.217,2.093H392.25c-3.277,0-6.514-0.753-9.43-2.191
		l-0.96-0.477c-2.697-1.328-5.008-3.18-6.814-5.393V217H412.134z"/>
		<g>
			<path style="fill:#102051;" d="M425.476,133.505c2.039,11.5-5.174,44.849-5.174,44.849H395.89h-29.9c0,0-4.6-33.925,0-46.574
			C370.59,119.13,425.476,133.505,425.476,133.505z"/>
			<g>
				<path style="fill:#102051;" d="M368.241,144.047c-1.053,0-2.167-0.302-3.181-0.893c-3.606-2.1-6.129-6.102-6.278-9.958
				c-0.129-3.348,1.381-6.621,4.254-9.215c3.526-3.184,8.565-4.849,12.834-4.247c4.562,0.646,9.183,4.72,8.79,9.757l-0.498-0.039
				c0.371-4.757-4.024-8.609-8.362-9.223c-4.129-0.583-9.008,1.034-12.429,4.123c-2.76,2.493-4.212,5.627-4.088,8.824
				c0.143,3.693,2.566,7.529,6.03,9.546c1.584,0.922,3.417,1.083,4.784,0.424l0.218,0.45
				C369.689,143.898,368.98,144.047,368.241,144.047z"/>
			</g>
			<g>
				<path style="fill:#102051;" d="M365.003,141.855c-3.854-2.659-5.672-7.844-4.323-12.328c1.348-4.484,5.725-7.806,10.407-7.898
				c2.603-0.06,5.126,0.823,7.552,1.668c1.874,0.653,3.813,1.329,5.782,1.569l-0.06,0.496c-2.022-0.247-3.986-0.931-5.886-1.593
				c-2.385-0.831-4.844-1.695-7.377-1.641c-4.471,0.088-8.65,3.26-9.938,7.542c-1.288,4.282,0.448,9.233,4.129,11.773
				L365.003,141.855z"/>
			</g>
			<g>
				<path style="fill:#102051;" d="M423.849,155.693l-0.463-0.189c2.898-7.064,3.597-15.062,1.969-22.521l0.488-0.106
				C427.492,140.434,426.784,148.537,423.849,155.693z"/>
			</g>
		</g>
		<path style="fill:#F2A981;" d="M408.57,226.033L408.57,226.033c-2.905,1.617-6.175,2.466-9.499,2.466h-10.058
		c-3.095,0-6.145-0.735-8.899-2.145l-0.903-0.462c-6.526-3.34-10.631-10.054-10.631-17.385V144.49l21.273-2.915l28.749,2.915v64.479
		C418.601,216.055,414.762,222.586,408.57,226.033z"/>
		<linearGradient id="SVGID_00000147931345612698529010000012891598851721616063_" gradientUnits="userSpaceOnUse" x1="393.5902" y1="305.1425" x2="393.5902" y2="199.7914">
			<stop  offset="0" style="stop-color:#102051"/>
			<stop  offset="1" style="stop-color:#F2A981"/>
		</linearGradient>
		<path style="fill:url(#SVGID_00000147931345612698529010000012891598851721616063_);" d="M418.602,200.101v8.866
		c0,7.09-3.841,13.622-10.034,17.066c-2.904,1.616-6.175,2.467-9.499,2.467h-10.057c-3.093,0-6.147-0.736-8.901-2.145l-0.903-0.466
		c-6.526-3.341-10.632-10.051-10.632-17.382v-8.866c0,3.234,11.655-3.117,22.343-1.025c2.727,0.534,4.741,1.013,9.362-0.424
		C409.333,195.376,418.602,202.905,418.602,200.101z"/>
		<g>
			<path style="fill:#D68056;" d="M401.866,174.069c1.396-1.581,4.361-1.141,4.954-1.053c0.652,0.097,1.315,0.201,2.08,0.614
			c1.846,0.995,2.398,2.764,2.348,3.162c-0.011,0.09-0.043,0.15-0.09,0.188c-0.18,0.144-0.586-0.104-0.724-0.188
			c-0.755-0.457-1.387-1.38-1.629-1.677c-1.316-1.616-4.894-1.693-6.612-0.527c-0.257,0.174-0.764,0.574-0.863,0.479
			C401.232,174.973,401.557,174.418,401.866,174.069z"/>
			<path style="fill:#D68056;" d="M403.763,179.181c1.536,0.351,3.553,0.305,5.057,0.022c0.549-0.104,0.951,0.35,0.53,0.603
			c-0.705,0.423-1.701,0.788-3.06,0.824c-1.632,0.043-2.587-0.411-3.138-0.89C402.824,179.455,403.247,179.063,403.763,179.181z"/>
		</g>
		<path style="fill:#102051;" d="M410.309,170.91l-8.617-1.994c-0.668-0.155-1.087-0.827-0.933-1.495l0,0
		c0.155-0.668,0.827-1.087,1.495-0.933l8.617,1.994c0.668,0.154,1.087,0.827,0.933,1.495l0,0
		C411.649,170.644,410.976,171.064,410.309,170.91z"/>
		<g>
			<path style="fill:#D68056;" d="M384.359,174.069c-1.396-1.581-4.361-1.141-4.954-1.053c-0.652,0.097-1.315,0.201-2.08,0.614
			c-1.846,0.995-2.398,2.764-2.348,3.162c0.011,0.09,0.043,0.15,0.09,0.188c0.18,0.144,0.586-0.104,0.724-0.188
			c0.755-0.457,1.387-1.38,1.629-1.677c1.316-1.616,4.894-1.693,6.612-0.527c0.257,0.174,0.764,0.574,0.862,0.479
			C384.993,174.973,384.668,174.418,384.359,174.069z"/>
			<path style="fill:#D68056;" d="M382.461,179.181c-1.536,0.351-3.553,0.305-5.057,0.022c-0.549-0.104-0.951,0.35-0.53,0.603
			c0.705,0.423,1.701,0.788,3.06,0.824c1.632,0.043,2.587-0.411,3.138-0.89C383.401,179.455,382.977,179.063,382.461,179.181z"/>
		</g>
		<path style="fill:#102051;" d="M375.916,170.91l8.617-1.994c0.668-0.155,1.087-0.827,0.933-1.495l0,0
		c-0.154-0.668-0.827-1.087-1.495-0.933l-8.617,1.994c-0.668,0.154-1.087,0.827-0.933,1.495l0,0
		C374.576,170.644,375.249,171.064,375.916,170.91z"/>
		<g>
			<path style="fill:#0B131D;" d="M408.631,176.057c0,1.326-1.075,2.401-2.401,2.401c-1.326,0-2.401-1.075-2.401-2.401
			s1.075-2.401,2.401-2.401C407.556,173.656,408.631,174.731,408.631,176.057z"/>
			<path style="fill:#FFFFFF;" d="M409.834,176.171c0,0.471-0.724,0.853-1.617,0.853c-0.893,0-1.617-0.382-1.617-0.853
			c0-0.471,0.724-0.853,1.617-0.853C409.11,175.318,409.834,175.699,409.834,176.171z"/>
		</g>
		<g>
			<path style="fill:#0B131D;" d="M377.593,176.057c0,1.326,1.075,2.401,2.401,2.401c1.326,0,2.401-1.075,2.401-2.401
			s-1.075-2.401-2.401-2.401C378.668,173.656,377.593,174.731,377.593,176.057z"/>
			<path style="fill:#FFFFFF;" d="M384.012,176.171c0,0.471-0.724,0.853-1.617,0.853c-0.893,0-1.617-0.382-1.617-0.853
			c0-0.471,0.724-0.853,1.617-0.853C383.288,175.318,384.012,175.699,384.012,176.171z"/>
		</g>
		<g>
			<path style="fill:#102051;" d="M395.188,199.399c-1.756,0-3.297-0.284-4.327-0.54c-0.934-0.232-1.517-1.152-1.328-2.096
			l1.737-8.683l0.49,0.098l-1.737,8.683c-0.136,0.682,0.285,1.346,0.958,1.513c1.923,0.478,5.677,1.059,9.206-0.413l0.192,0.462
			C398.62,199.156,396.811,199.399,395.188,199.399z"/>
		</g>
		<g>
			<g>
				<path style="fill:#152036;" d="M435.031,574.637c-11.49-0.787-21.442,7.889-22.23,19.379c-0.191,2.792,0.176,5.494,1.007,7.996
				c2.589,7.791,9.674,13.638,18.371,14.234c3.444,0.236,6.743-0.393,9.705-1.678c0.167-0.842,1.115-1.448,1.928-1.382
				c0.189,0.015,0.357,0.064,0.516,0.128c5.641-3.391,9.597-9.381,10.081-16.446C455.197,585.377,446.52,575.424,435.031,574.637z"
				/>
				<g>
					<ellipse transform="matrix(0.998 -0.0633 0.0633 0.998 -28.3162 28.1703)" style="fill:#152036;" cx="430.661" cy="461.208" rx="29.778" ry="29.778"/>
				</g>
				<path style="fill:#152036;" d="M460.219,457.61c-14.769-0.456-30.02,5.177-44.749,3.841c-4.913-0.445-9.83-0.765-14.751-1.001
				c0.2,1.834,0.265,3.612,0.116,5.433l12.756,135.432l40.739-3.583l6.094-131.285L460.219,457.61z"/>
			</g>
			<g>
				<path style="fill:#0B0C0F;" d="M444.198,585.723l-0.574-0.014c0.539-22.992,0.246-46.492-0.038-69.219
				c-0.201-16.1-0.409-32.748-0.322-49.183l0.574,0.004c-0.086,16.429,0.122,33.074,0.323,49.172
				C444.445,539.215,444.738,562.72,444.198,585.723z"/>
			</g>
		</g>
		<g>
			<path style="fill:#102051;" d="M398.765,212.535c-0.435-0.522-0.935-0.976-1.487-1.35c-1.747-1.183-3.625-1.333-4.894-1.245
			l-0.033-0.499c1.347-0.089,3.343,0.067,5.207,1.33c0.59,0.4,1.126,0.885,1.59,1.443L398.765,212.535z"/>
		</g>
		<g>
			<g>
				<path style="fill:#102051;" d="M395.912,205.27c-0.335,0-0.679-0.008-1.032-0.025l0.024-0.499
				c7.658,0.36,11.099-3.701,11.132-3.742l0.387,0.316C406.287,201.489,403.114,205.27,395.912,205.27z"/>
			</g>
			<g>
				<path style="fill:#102051;" d="M406.963,202.143c-0.055-0.033-1.342-0.834-1.834-2.44l0.479-0.146
				c0.436,1.426,1.603,2.152,1.615,2.16L406.963,202.143z"/>
			</g>
		</g>
		<g>
			<circle style="fill:none;stroke:#FFFFFF;stroke-width:0.6536;stroke-miterlimit:10;" cx="408.633" cy="178.355" r="10.538"/>
			<circle style="fill:none;stroke:#FFFFFF;stroke-width:0.6536;stroke-miterlimit:10;" cx="378.662" cy="178.355" r="10.539"/>
			<g>
				<path style="fill:#FFFFFF;" d="M397.936,178.641c-0.045-0.025-4.564-2.456-8.565-0.007l-0.341-0.558
				c4.329-2.649,9.023-0.116,9.221-0.007L397.936,178.641z"/>
			</g>
			<g>
				<rect x="387.677" y="172.566" style="fill:#FFFFFF;" width="11.941" height="0.653"/>
			</g>
		</g>
		<g>
			<g>
				<polygon style="fill:#152036;" points="368.56,595.589 323.963,592.617 311.944,735.529 336.991,735.529 343.107,724.386 
				339.556,722.156 			"/>
				<ellipse transform="matrix(0.9448 -0.3277 0.3277 0.9448 -175.1007 146.1561)" style="fill:#152036;" cx="346.107" cy="592.617" rx="22.452" ry="22.452"/>
			</g>
			<g>
				<polygon style="fill:#0B0C0F;" points="319.165,735.558 318.593,735.501 332.481,593.149 333.053,593.206 			"/>
			</g>
		</g>
		<g>
			<g>
				<ellipse transform="matrix(0.9448 -0.3277 0.3277 0.9448 -175.1007 146.1561)" style="fill:#152036;" cx="346.107" cy="592.617" rx="22.452" ry="22.452"/>
				<g>
					<path style="fill:#152036;" d="M369.105,593.173l28.244-123.719l-63.377-8.246l-9.802,128.951
					C338.71,593.385,354.305,592.844,369.105,593.173z"/>
					<circle style="fill:#152036;" cx="366.088" cy="462.562" r="32.006"/>
				</g>
			</g>
			<g>
				<polygon style="fill:#0B0C0F;" points="333.898,584.543 333.326,584.486 348.779,426.09 349.351,426.147 			"/>
			</g>
		</g>
		<g>
			<g>
				<polygon style="fill:#152036;" points="454.33,597.731 454.437,609.282 453.518,735.529 424.984,735.529 413.591,608.318 
				412.751,597.165 			"/>
				<path style="fill:#152036;" d="M442.704,576.688c-0.181,0.126-0.362,0.248-0.541,0.38c-1.463,1.076-3.193-0.375-3.002-1.728
				c-1.325-0.365-2.705-0.605-4.13-0.702c-11.49-0.787-21.442,7.889-22.23,19.379c-0.191,2.792,0.176,5.494,1.007,7.996
				c2.589,7.791,9.674,13.638,18.371,14.234c11.49,0.787,21.443-7.889,22.23-19.379
				C455.008,588.129,450.127,580.292,442.704,576.688z"/>
			</g>
			<g>
				<path style="fill:#0B0C0F;" d="M443.646,735.543c-1.624-34.796-1.062-70.33-0.519-104.693c0.153-9.706,0.311-19.742,0.42-29.639
				l0.574,0.006c-0.107,9.898-0.267,19.935-0.42,29.642c-0.543,34.354-1.104,69.879,0.52,104.657L443.646,735.543z"/>
			</g>
		</g>
		<g>
			<g>
				<path style="fill:#356AB0;" d="M339.682,243.812c-11.024-0.253-19.42,7.059-20.802,15.38
				c-2.011,12.103-12.839,103.077,0.76,115.912c13.6,12.835,27.7,0.612,33.737-33.044c2.984-16.633,7.114-60.216,2.45-79.766
				C353.824,253.899,339.682,243.812,339.682,243.812z"/>
				<ellipse transform="matrix(0.223 -0.9748 0.9748 0.223 6.3272 532.5252)" style="fill:#356AB0;" cx="337.222" cy="262.293" rx="18.605" ry="18.605"/>
			</g>
			<g>
				<rect x="340.456" y="343.965" transform="matrix(0.9806 -0.1962 0.1962 0.9806 -61.5634 73.5869)" style="fill:#102051;" width="0.5" height="7.236"/>
			</g>
			<circle style="fill:#356AB0;" cx="330.514" cy="366.075" r="13.999"/>
		</g>
		<g>
			<path style="fill:#356AB0;" d="M463.465,249.702c0,0,44.047,73.249,53.247,116.374l-19.068,25.994
			c-20.987-4.465-38.082-55.054-46.219-74.806c-2.407-5.843-3.823-12.044-4.212-18.351l0,0l-16.326-32.074L463.465,249.702z"/>
			<g>
				<path style="fill:#102051;" d="M461.464,338.842c-4.778-8.845-15.88-31.792-15.771-53.782l0.5,0.003
				c-0.108,21.874,10.95,44.73,15.71,53.542L461.464,338.842z"/>
			</g>
			<g>
				<path style="fill:#4F2E4D;" d="M446.977,299.077c-0.931-1.332-1.818-4.085-2.757-7c-0.886-2.747-1.801-5.589-2.683-6.85
				l0.471-0.329c0.932,1.332,1.819,4.087,2.759,7.003c0.885,2.746,1.8,5.586,2.681,6.847L446.977,299.077z"/>
			</g>
			<circle style="fill:#356AB0;" cx="448.442" cy="260.673" r="18.605"/>
			<circle style="fill:#356AB0;" cx="500.34" cy="374.058" r="18.212"/>
		</g>
		<g>
			<g>
				<path style="fill:#F2A981;" d="M333.972,498.789c-0.203,1.105-2.385,9.431-2.873,15.236c-0.488,5.806,0.577,19.741,0.577,19.741
				c-0.407-0.063-3.576,1.534-4.263,0.767c-3.999-4.471-9.156-20.891-9.156-20.891l3.865-23.272c0,0,11.538,0.892,11.826,1.183
				C334.235,491.845,333.972,498.789,333.972,498.789z"/>
				<path style="fill:#F2A981;" d="M332.632,495.434c0.863,1.408,2.779,6.708,2.875,7.283c0.096,0.575-0.958,11.308-0.958,11.308
				l-1.15,1.438l-1.246-1.342l-0.575-3.833l0.958-2.779c0,0-1.818-3.546-2.011-3.833
				C330.332,503.388,332.632,495.434,332.632,495.434z"/>
			</g>
			<circle style="fill:#F2A981;" cx="327.924" cy="492.078" r="6.048"/>
		</g>
		<g>
			<path style="fill:#102051;" d="M372.604,150.372c-0.863,6.133-4.024,19.999-4.024,19.391c0-0.608,0-25.272,0-25.272
			L372.604,150.372z"/>
			<path style="fill:#102051;" d="M418.601,144.49c3.738-0.635,15.337-10.41,7.238-24.785c-8.099-14.375-48.349-7.99-40.299,12.392
			c0,0,3.165-11.817-10.492-10.092c-13.657,1.725-17.679,16.22-6.468,22.485l-1.15,9.14c0,0,15.523-2.012,21.561-10.062
			c0,0,22.663,8.018,26.137,8.896l3.474,18.753c1.359-0.786,4.314-17.587,4.314-17.587L418.601,144.49z"/>
		</g>
		<g>
			<polygon style="fill:#356AB0;" points="411.306,246.171 395.599,287.793 366.171,301.643 356.54,264.731 374.219,246.171 
			393.072,246.171 		"/>
			<path style="fill:#356AB0;" d="M411.306,246.171c0,0-14.558,25.169-25.949,22.764c-11.392-2.405-11.138-22.764-11.138-22.764
			l-34.538-2.359l5.838,52.713l-2.158,40.443l-4.489,52.767l-1.441,3.37l-2.993,13.027l-0.092,10.147l2.048,2.572l1.955,1.989
			l23.079,2.834l32.637-3.739l28.724,2.014l27.098-2.014l5.605-11.125l-9.108-78.297l12.227-82.113
			c-2.628-1.438-7.208-6.776-10.171-6.333C436.029,243.924,423.911,246.691,411.306,246.171L411.306,246.171z"/>
			<ellipse transform="matrix(0.7071 -0.7071 0.7071 0.7071 -55.1515 393.6604)" style="fill:#356AB0;" cx="447.614" cy="263.404" rx="18.605" ry="18.605"/>
			<g>
				<path style="fill:#102051;" d="M344.387,297.342l-1.905-9.635l0.49-0.097l1.477,7.464c1.214-5.143,1.551-10.415,1.003-15.686
				l0.497-0.052c0.593,5.702,0.161,11.405-1.286,16.949L344.387,297.342z"/>
			</g>
			<ellipse transform="matrix(0.223 -0.9748 0.9748 0.223 6.3272 532.5252)" style="fill:#356AB0;" cx="337.222" cy="262.293" rx="18.605" ry="18.605"/>
			<g>
				<path style="fill:#102051;" d="M338.162,421.005l-4.063-4.631l-0.002-0.091c-0.001-0.056-0.1-5.645,0.374-9.77
				c0.475-4.131,2.492-10.854,2.512-10.921l3.022-8.768l4.522-78.417l0.499,0.028l-4.537,78.52l-3.03,8.792
				c-0.017,0.058-2.021,6.738-2.491,10.824c-0.437,3.804-0.383,8.872-0.373,9.612l3.942,4.492L338.162,421.005z"/>
			</g>
		</g>
		<g>
			<g>
				<path style="fill:#F2A981;" d="M461.684,439.21l-8.694-16.054c0,0-14.256,4.584-14.559,7.769
				c-0.602,6.329,13.428,16.646,13.428,16.646L461.684,439.21z"/>
				<path style="fill:#F2A981;" d="M449.239,427.154c-12.964-3.594-15.695-5.175-19.433-3.019
				c-3.737,2.156,13.081,6.037,13.081,6.037L449.239,427.154z"/>
			</g>
			<circle style="fill:#F2A981;" cx="458.307" cy="430.582" r="9.092"/>
		</g>
		<g>
			<path style="fill:#0B0C0F;" d="M453.918,449.157c-6.518-3.63-14.42-11.012-16.367-18.643l0.557-0.143
			c1.906,7.467,9.677,14.712,16.09,18.284L453.918,449.157z"/>
		</g>
		<g>
			<g>
				<path style="fill:#356AB0;" d="M518.541,374.644c-4.723,23.878-16.507,34.048-16.507,34.048s1.364,5.416-1.043,14.903
				c-2.407,9.487-15.922,7.669-20.234,5.944c-4.312-1.725-10.882-8.938-10.882-8.938l-4.697,0.738c0,0-7.762-9.875-3.45-14.424
				c4.312-4.55,6.9-5.178,6.9-5.178l3.202-2.194c0,0,1.973-10.543,5.423-19.933c3.45-9.39,10.923-19.206,10.923-19.206
				L518.541,374.644z"/>
				<g>
					<path style="fill:#102051;" d="M501.689,419.116l-0.494-0.074c1.33-8.886-3.045-18.446-10.64-23.248l0.267-0.423
					C498.579,400.276,503.048,410.04,501.689,419.116z"/>
				</g>
				<g>
					<path style="fill:#102051;" d="M504.327,413.096l-0.499-0.031c0.196-5.447-1.086-10.852-3.707-15.631l0.438-0.24
					c1.998,3.642,3.23,7.642,3.639,11.749l0.79-8.815l0.498,0.045L504.327,413.096z"/>
				</g>
				<g>
					<path style="fill:#102051;" d="M469.102,403.051l-0.256-0.43c2.573-1.537,5.763-2.462,9.479-2.749
					c3.018-0.233,6.064-0.038,9.03,0.188c-2.907-2.069-6.739-2.803-10.205-1.91l-0.125-0.484c3.883-1.003,8.217-0.038,11.309,2.515
					l0.609,0.503l-0.788-0.061c-3.209-0.248-6.531-0.504-9.791-0.253C474.726,400.651,471.609,401.553,469.102,403.051z"/>
				</g>
				<circle style="fill:#356AB0;" cx="500.34" cy="374.058" r="18.212"/>
				<g>
					<path style="fill:#102051;" d="M480.963,369.868l-0.484-0.125c0.576-2.225,1.975-4.272,3.838-5.616l0.446-0.322l-0.051,0.547
					c-0.147,1.596-0.84,3.125-1.929,4.296c2.45-0.262,4.926-0.399,7.398-0.378l-0.002,0.5c-2.713-0.017-5.401,0.143-8.066,0.457
					l-0.804,0.095l0.61-0.532c1.148-1.001,1.936-2.393,2.213-3.889C482.601,366.169,481.46,367.949,480.963,369.868z"/>
				</g>
			</g>
			<g>
				<path style="fill:#F2A981;" d="M486.716,425.022c-12.162,7.608-23.405,13.323-23.405,13.323l-11.246-14.292l16.483-15.999
				c0,0,2.589-5.771,12.059-7.47c2.17-0.389,4.27,0.224,6.217,1.401C495.405,407.171,495.216,419.705,486.716,425.022z"/>
				<circle style="fill:#F2A981;" cx="458.307" cy="430.582" r="9.092"/>
			</g>
		</g>
		<path style="fill:#FFFFFF;" d="M424.673,245.66c0,0-19.63,42.49-24.39,55.984c-2.419,6.857-3.771,17.307-4.517,25.928
		c-0.144,1.662-2.539,1.743-2.794,0.095c-1.329-8.59-3.355-19.04-6.097-26.022c-5.681-14.468-26.115-56.392-26.115-56.392
		l31.957-3.21L424.673,245.66z"/>
		<g>
			<path style="fill:#102051;" d="M395.864,331.723l-0.403-0.295c0.305-0.417,1.859-2.509,2.536-2.797
			c0.146-0.22,0.402-2.303,0.674-4.507c0.508-4.126,1.277-10.362,2.784-15.77c1.845-6.615,4.827-13.543,7.984-20.876
			c1.15-2.67,2.339-5.431,3.526-8.296c4.446-10.73,12.924-33.552,13.009-33.781l0.469,0.174
			c-0.085,0.229-8.565,23.061-13.016,33.799c-1.189,2.868-2.378,5.63-3.528,8.302c-3.151,7.318-6.127,14.23-7.962,20.813
			c-1.498,5.372-2.264,11.585-2.771,15.697c-0.488,3.963-0.615,4.753-0.975,4.906C397.767,329.272,396.538,330.801,395.864,331.723z
			"/>
		</g>
		<g>
			<path style="fill:#102051;" d="M392.53,331.742c-0.015-0.017-1.557-1.743-3.57-4.974c-0.871-1.399-1.137-3.771-1.539-7.36
			c-0.538-4.811-1.352-12.082-4.339-21.698c-4.021-12.947-16.325-35.049-22.237-45.671c-1.603-2.879-2.76-4.959-3.142-5.76
			l0.451-0.215c0.375,0.787,1.529,2.861,3.127,5.732c5.92,10.637,18.241,32.77,22.278,45.766c3.001,9.663,3.818,16.961,4.359,21.791
			c0.394,3.522,0.654,5.848,1.466,7.151c1.986,3.19,3.502,4.887,3.517,4.904L392.53,331.742z"/>
		</g>
		<polygon style="fill:#102051;" points="398.46,256.372 392.716,242.042 415.128,236.085 418.601,246.229 	"/>
		<polygon style="fill:#FFFFFF;" points="392.716,242.042 399.701,253.536 418.601,246.229 415.128,236.085 	"/>
		<polygon style="fill:#102051;" points="387.977,256.372 393.322,243.038 371.309,236.085 367.836,246.229 	"/>
		<polygon style="fill:#FFFFFF;" points="393.721,242.042 386.736,253.536 367.836,246.229 371.309,236.085 	"/>
		<g>
			<path style="fill:#102051;" d="M393.816,419.948c-0.032-0.652-3.188-65.361-1.795-75.946c0.378-2.875,1.172-7.557,2.36-13.915
			c0.071-0.383,0.174-0.657,0.29-0.877c-0.342,0.014-0.776-0.042-1.189-0.326c-0.797-0.547-1.201-1.717-1.201-3.478
			c0-4.39-2.853-14.141-5.37-22.745l-0.277-0.947c-3.363-11.506-25.871-55.902-26.098-56.349l-0.216-0.426l7.345,1.014l3.483-10.169
			l0.226,0.06l21.844,5.806l22.071-5.866l3.485,10.178l6.297-0.59l-24.546,56.343c-0.12,0.75-2.302,14.352-4.513,25.904
			c-0.129,0.675-0.356,1.027-0.567,1.322l0.001,0.091l-0.093,0.036c-0.202,0.281-0.376,0.546-0.481,1.112
			c-1.186,6.349-1.978,11.022-2.355,13.889c-1.387,10.54,1.766,75.204,1.798,75.855L393.816,419.948z M361.198,245.565
			c2.332,4.612,22.718,45.067,25.916,56.008l0.277,0.948c2.526,8.636,5.39,18.424,5.39,22.885c0,1.56,0.338,2.619,0.979,3.063
			c0.438,0.304,0.932,0.256,1.181,0.203c-0.024-2.079-0.229-20.33,0.002-28.292c0.237-8.135-1.82-54.943-1.968-58.276l-21.506-5.717
			l-3.465,10.118L361.198,245.565z M393.483,242.237c0.195,4.421,2.196,50.112,1.961,58.156c-0.213,7.324-0.057,23.374-0.011,27.489
			c0.033-0.106,0.062-0.224,0.088-0.358c2.261-11.816,4.493-25.781,4.515-25.92l0.018-0.06l24.22-55.596l-5.846,0.547l-3.462-10.109
			l-21.244,5.646l-0.067,0.251L393.483,242.237z"/>
		</g>
		<circle style="fill:none;stroke:#102051;stroke-width:0.5;stroke-miterlimit:10;" cx="398.094" cy="265.013" r="1.609"/>
		<circle style="fill:none;stroke:#102051;stroke-width:0.5;stroke-miterlimit:10;" cx="398.094" cy="275.516" r="1.609"/>
		<circle style="fill:none;stroke:#102051;stroke-width:0.5;stroke-miterlimit:10;" cx="398.094" cy="286.02" r="1.609"/>
		<g>
			<path style="fill:#102051;" d="M347.989,422.736l-1.834-3.318c-1.36-1.825-2.476-3.84-3.288-5.954l0.452-0.211l3.257,5.895
			c0.137,0.183,0.276,0.364,0.418,0.543c-0.546-4.218-0.432-8.474,0.341-12.673l0.492,0.09c-0.813,4.415-0.889,8.892-0.226,13.32
			c0.393,0.457,0.803,0.9,1.228,1.325l-0.353,0.354c-0.247-0.247-0.489-0.5-0.725-0.758L347.989,422.736z"/>
		</g>
		<g>
			<path style="fill:#102051;" d="M426.929,420.79l-0.24-0.438c1.976-1.087,3.83-2.423,5.503-3.953
			c0.88-1.552,2.112-2.911,3.576-3.924l1.272-0.878l-0.929,1.234c-1.049,1.393-2.232,2.694-3.522,3.882
			c-0.13,0.233-0.252,0.472-0.365,0.713c3.898-2.562,7.093-6.262,9.046-10.494l0.453,0.209c-2.104,4.564-5.625,8.52-9.912,11.139
			l-0.626,0.383l0.263-0.685c0.052-0.136,0.106-0.269,0.163-0.403C430.155,418.798,428.584,419.88,426.929,420.79z"/>
		</g>
		<g>
			<path style="fill:#102051;" d="M375.414,420.381l-0.504-0.263c-3.212-1.676-6.26-3.682-9.068-5.967
			c0.642,2.636,2.766,4.93,5.363,5.71l-0.144,0.479c-3.044-0.914-5.393-3.643-5.845-6.788l-0.093-0.645l0.5,0.419
			c2.782,2.325,5.813,4.37,9.013,6.084c-1.886-7.19-3.187-14.582-3.868-21.984l0.498-0.046c0.696,7.563,2.042,15.117,4,22.453
			L375.414,420.381z"/>
		</g>
		<g>
			<path style="fill:#102051;" d="M412.553,417.363l-0.037-0.498c1.353-0.101,2.665-0.861,3.423-1.986l0.414,0.279
			C415.512,416.407,414.056,417.252,412.553,417.363z"/>
		</g>
		<g>
			<rect x="444.989" y="415.035" transform="matrix(0.6669 -0.7452 0.7452 0.6669 -160.2392 472.1302)" style="fill:#102051;" width="5.897" height="0.501"/>
		</g>
	</g>
</svg>