<svg version="1.1" id="Layer_1" xmlns="http://www.w3.org/2000/svg" xmlns:xlink="http://www.w3.org/1999/xlink" x="0px" y="0px"
	 width="100%" viewBox="0 0 728 771" enable-background="new 0 0 728 771" xml:space="preserve">
<path fill="#FDFFFE" opacity="1.000000" stroke="none" 
	d="
M375.000000,772.000000 
	C250.000000,772.000000 125.500000,772.000000 1.000000,772.000000 
	C1.000000,515.000000 1.000000,258.000000 1.000000,1.000000 
	C243.666672,1.000000 486.333344,1.000000 729.000000,1.000000 
	C729.000000,258.000000 729.000000,515.000000 729.000000,772.000000 
	C611.166687,772.000000 493.333344,772.000000 375.000000,772.000000 
M387.648102,293.001099 
	C388.101074,292.994202 388.554047,292.987305 389.006744,293.660126 
	C389.083038,294.105988 389.159332,294.551849 389.134155,295.785248 
	C391.590485,304.821014 393.926849,313.891876 396.559204,322.876099 
	C397.692261,326.743347 399.438629,330.430908 400.902252,334.605347 
	C400.902252,334.605347 400.999695,334.998779 401.143738,335.520508 
	C401.396545,335.774017 401.649384,336.027496 401.872894,336.646851 
	C401.872894,336.646851 401.970734,337.000610 402.084595,337.726654 
	C402.906738,338.473846 403.609039,339.482391 404.571442,339.923767 
	C409.152771,342.024719 413.400818,340.510468 417.381714,338.222046 
	C436.821533,327.047028 456.190796,315.749207 475.645325,304.600067 
	C480.049591,302.076019 483.855652,296.709503 490.079956,300.898071 
	C490.509125,301.186859 491.441742,300.996002 492.022064,300.749756 
	C497.174713,298.562958 502.300720,296.313354 508.163666,293.765472 
	C506.745239,293.178009 505.929962,292.840363 504.328369,292.177063 
	C506.546356,291.337097 507.335052,291.104309 508.065338,290.750854 
	C511.976532,288.857941 512.025696,285.241547 511.128143,281.980743 
	C509.894318,277.498413 506.811859,279.477966 503.931122,280.525360 
	C500.058044,281.933502 496.029175,282.913239 492.001343,284.005737 
	C492.001343,284.005737 491.930023,283.940094 491.919373,283.168945 
	C492.598114,280.583801 493.276855,277.998657 493.955566,275.413544 
	C493.294250,275.170197 492.632904,274.926849 491.971588,274.683502 
	C490.937073,276.371033 489.591370,277.944977 488.926025,279.767303 
	C486.894531,285.331390 483.567719,289.231842 477.856171,291.598267 
	C466.692963,296.223419 455.920624,301.801910 444.716583,306.315796 
	C434.000732,310.632996 422.942200,314.099609 412.001923,317.997375 
	C412.001923,317.997375 412.058685,317.964081 412.015015,317.384460 
	C411.751465,316.887695 411.487915,316.390961 411.203735,315.167938 
	C411.134064,314.445038 411.064423,313.722168 411.041840,312.275757 
	C410.763092,311.154114 410.484344,310.032471 410.188477,308.269897 
	C410.130066,307.846710 410.071625,307.423492 410.058960,306.274170 
	C409.783813,305.144836 409.508667,304.015533 409.210938,302.254822 
	C409.146484,301.838806 409.082062,301.422791 409.049377,300.169861 
	C408.449402,297.071808 407.849457,293.973724 407.226379,290.157440 
	C407.161987,289.442017 407.097565,288.726562 407.070435,287.154083 
	C406.456207,282.870972 405.841980,278.587830 405.761536,273.877167 
	C415.143372,268.225800 417.123901,262.847229 413.532013,252.185883 
	C411.717010,246.798660 411.297302,241.490738 413.222260,235.610199 
	C414.818512,238.626907 415.760986,241.403091 417.507172,243.514679 
	C422.076111,249.039673 422.268677,254.557373 417.924988,260.736725 
	C417.729553,261.091705 417.534119,261.446655 417.338684,261.801636 
	C417.978912,261.627563 418.619171,261.453522 419.945801,261.168579 
	C429.166748,255.506622 431.183350,249.800598 427.123688,239.754456 
	C423.888245,231.747894 423.447754,223.888626 427.743622,216.202408 
	C433.062286,206.686127 432.218231,197.371979 425.834625,189.078918 
	C421.849335,183.901627 419.776520,178.519028 419.384033,172.258499 
	C418.854187,163.807434 418.309357,155.545822 422.230804,147.339844 
	C424.051544,143.529724 423.733978,138.256119 423.122894,133.819901 
	C421.947601,125.288139 419.270538,116.946815 418.326782,108.403839 
	C417.197235,98.179054 413.857880,89.026260 408.132111,80.645805 
	C396.010406,62.903988 377.892609,57.682327 357.809570,57.077076 
	C345.078247,56.693386 333.100769,59.024635 322.799622,67.578522 
	C309.510040,78.613937 302.733673,92.654984 302.304230,109.710083 
	C302.014191,121.230415 303.695190,132.500748 308.928284,143.816284 
	C309.684570,149.604553 310.440826,155.392838 311.038452,161.960632 
	C311.509216,167.701981 310.685059,173.958160 312.720428,179.077454 
	C316.953522,189.724487 315.323944,198.750748 309.768799,208.374146 
	C303.263885,219.642822 299.243805,231.770950 305.037140,245.730072 
	C303.835052,252.925598 302.649323,260.123932 301.427612,267.316132 
	C298.597717,283.975677 295.660156,300.617584 292.945709,317.295868 
	C291.439850,326.548157 290.102631,335.655853 280.768646,340.956818 
	C277.938141,342.564301 275.688843,345.208282 273.208374,347.416840 
	C257.702850,361.222717 242.394699,375.259644 226.596146,388.721283 
	C221.749603,392.850891 219.264221,397.810211 218.287155,403.497253 
	C217.524887,407.933929 216.732285,412.944244 221.111404,417.799805 
	C222.426514,412.874298 223.511230,408.811737 224.595963,404.749146 
	C225.126846,404.842133 225.657730,404.935120 226.188614,405.028107 
	C226.892029,407.262268 227.595444,409.496460 228.298859,411.730621 
	C228.839737,411.667755 229.380615,411.604919 229.921494,411.542084 
	C230.253494,408.684204 231.010452,405.796539 230.812851,402.975739 
	C230.549759,399.219818 231.878754,396.821503 234.853775,394.631744 
	C257.051331,378.292969 279.103638,361.756409 301.353119,345.489197 
	C304.581604,343.128754 306.304321,340.455017 307.086151,336.671051 
	C309.669434,324.168518 312.371826,311.689423 315.188202,299.237427 
	C315.668152,297.115479 316.934021,295.171295 317.966431,293.947906 
	C318.289276,295.216919 318.837585,296.474915 318.900452,297.756653 
	C319.603546,312.098450 320.231812,326.443848 320.376434,341.329620 
	C318.822296,346.935913 317.480713,352.611755 315.673676,358.135284 
	C310.516541,373.899445 308.824158,389.944885 310.956940,406.418243 
	C311.832794,413.183594 312.458588,419.985565 313.036438,426.784637 
	C315.857300,459.975067 318.607086,493.171600 321.413727,526.363281 
	C324.276367,560.217468 327.162292,594.069763 330.063934,627.920654 
	C332.012482,650.652710 334.006104,673.380981 335.892273,696.826111 
	C334.250641,697.980957 332.764832,699.613281 330.940613,700.208679 
	C322.692688,702.900391 314.349091,705.298950 305.285675,708.025513 
	C302.762482,708.832703 300.168488,709.475037 297.745544,710.515625 
	C296.503815,711.048889 295.567871,712.294128 294.493744,713.217590 
	C295.530945,714.387329 296.348694,715.973389 297.642883,716.655701 
	C303.654602,719.825378 309.775330,719.097900 315.900360,716.741394 
	C325.167542,713.176025 334.387299,709.453674 343.801605,706.322266 
	C347.304504,705.157104 348.264709,703.463196 347.886353,699.390686 
	C347.887543,698.238831 347.888733,697.086914 347.933502,695.007263 
	C350.676300,605.072144 353.419098,515.136963 356.161865,425.201843 
	C356.718689,425.192108 357.275543,425.182373 357.832367,425.172638 
	C358.704926,432.720398 359.564270,440.269745 360.452301,447.815674 
	C364.302429,480.530853 368.170441,513.243896 372.013275,545.959900 
	C374.866302,570.249390 377.717926,594.539124 380.520355,618.834473 
	C383.475250,644.451355 386.371063,670.075012 389.147034,696.588379 
	C389.181519,697.789612 389.216003,698.990906 389.174591,700.964783 
	C389.954224,702.538025 390.358887,705.054199 391.572296,705.536682 
	C402.204803,709.764709 412.964417,713.677124 423.722717,717.583008 
	C429.327942,719.618103 434.855927,719.212769 440.042480,716.217834 
	C441.079468,715.619080 442.372803,714.306885 442.346710,713.356567 
	C442.321655,712.443420 440.890289,711.224426 439.809479,710.753540 
	C437.239014,709.633484 434.510468,708.876343 431.615417,707.581116 
	C431.069519,707.557739 430.523590,707.534363 429.318695,707.524963 
	C428.887482,707.607361 428.456299,707.689758 427.858887,707.100891 
	C420.649414,704.733276 413.457062,702.311401 406.220947,700.028259 
	C403.771423,699.255371 401.376007,698.672668 401.526672,694.373901 
	C401.411133,661.452026 401.295593,628.530151 401.616760,595.024780 
	C401.450043,590.150452 401.283325,585.276184 401.008698,579.419250 
	C400.705750,529.521545 400.331818,479.624023 400.178467,429.725830 
	C400.156158,422.463623 401.297394,415.204193 401.699463,407.932404 
	C402.056671,401.472168 402.381226,394.993042 402.288849,388.528381 
	C402.042450,371.285248 393.598816,356.430603 388.075592,339.965790 
	C386.200470,327.394257 380.887115,315.177643 384.168884,302.068695 
	C384.325531,301.443024 384.229248,300.754089 384.667786,299.990601 
	C384.667786,299.990601 384.980438,299.695709 385.390167,299.531891 
	C385.262268,299.015045 385.134369,298.498199 385.137299,297.285828 
	C385.457550,295.940460 385.777802,294.595123 386.541229,293.127502 
	C386.541229,293.127502 386.969604,292.960846 387.648102,293.001099 
z"/>
<path fill="#165E66" opacity="1.000000" stroke="none" 
	d="
M388.026733,340.742371 
	C393.598816,356.430603 402.042450,371.285248 402.288849,388.528381 
	C402.381226,394.993042 402.056671,401.472168 401.699463,407.932404 
	C401.297394,415.204193 400.156158,422.463623 400.178467,429.725830 
	C400.331818,479.624023 400.705750,529.521545 400.968323,580.320557 
	C401.011993,586.017334 401.096039,590.812805 401.180084,595.608276 
	C401.295593,628.530151 401.411133,661.452026 401.149719,694.833496 
	C396.946106,695.427368 393.119385,695.561523 389.292694,695.695740 
	C386.371063,670.075012 383.475250,644.451355 380.520355,618.834473 
	C377.717926,594.539124 374.866302,570.249390 372.013275,545.959900 
	C368.170441,513.243896 364.302429,480.530853 360.452301,447.815674 
	C359.564270,440.269745 358.704926,432.720398 357.832367,425.172638 
	C357.275543,425.182373 356.718689,425.192108 356.161865,425.201843 
	C353.419098,515.136963 350.676300,605.072144 347.471008,695.584961 
	C343.332184,696.145386 339.655853,696.128113 335.979553,696.110901 
	C334.006104,673.380981 332.012482,650.652710 330.063934,627.920654 
	C327.162292,594.069763 324.276367,560.217468 321.413727,526.363281 
	C318.607086,493.171600 315.857300,459.975067 313.036438,426.784637 
	C312.458588,419.985565 311.832794,413.183594 310.956940,406.418243 
	C308.824158,389.944885 310.516541,373.899445 315.673676,358.135284 
	C317.480713,352.611755 318.822296,346.935913 321.070190,341.142731 
	C324.141541,341.080322 326.519196,341.204803 328.932129,341.763184 
	C327.975281,346.305420 332.321533,352.608673 323.886261,353.756653 
	C329.190521,353.999054 334.198120,354.260590 339.164581,353.921051 
	C343.597778,353.618011 345.370148,354.816467 345.127808,359.638153 
	C344.718445,367.782349 345.055054,375.962372 345.005707,384.126923 
	C344.978424,388.640289 348.199585,387.980713 350.971954,387.967529 
	C353.716125,387.954468 357.113525,388.710236 356.956787,384.181213 
	C356.756195,378.383728 356.339417,372.592987 356.189728,366.794830 
	C356.113098,363.826416 356.403717,360.847626 356.549408,357.874573 
	C356.705292,354.694122 358.451080,353.868286 361.492310,353.945587 
	C369.297882,354.143921 377.111877,354.011841 383.857910,354.011841 
	C384.258698,349.450592 384.623260,345.301788 385.369812,341.106873 
	C386.510132,340.954620 387.268433,340.848480 388.026733,340.742371 
M324.531891,378.176910 
	C324.259277,378.376282 324.070557,378.636505 323.530212,379.178802 
	C323.261566,379.382111 323.075378,379.644043 322.529449,380.181793 
	C322.253510,380.382721 322.065460,380.646362 321.533447,381.192688 
	C321.263031,381.391815 321.077850,381.651672 320.301117,382.050476 
	C319.276459,382.645264 318.251801,383.240051 317.227112,383.834869 
	C317.569489,384.230011 317.911865,384.625153 318.254242,385.020325 
	C319.179657,384.021698 320.105042,383.023071 321.472870,381.820221 
	C321.750916,381.625641 321.937317,381.365417 322.484253,380.835022 
	C322.766907,380.634888 322.952148,380.367279 323.485229,379.826111 
	C323.767395,379.631409 323.955109,379.369080 324.489929,378.826660 
	C324.765656,378.624359 324.947113,378.357880 325.474274,377.818695 
	C325.746552,377.618225 325.930115,377.355713 326.640503,376.706909 
	C327.425629,374.803711 328.210785,372.900482 329.525879,370.635040 
	C329.891998,369.660156 330.258148,368.685272 330.624268,367.710388 
	C330.232819,367.622833 329.841400,367.535309 329.449982,367.447784 
	C329.301605,368.633484 329.153259,369.819183 328.382111,371.308960 
	C327.577240,373.197388 326.772339,375.085815 325.527130,377.181580 
	C325.256287,377.382751 325.071838,377.644745 324.531891,378.176910 
M375.051331,365.172668 
	C378.007507,376.800171 385.011017,384.007477 397.513458,385.301971 
	C384.889130,381.344086 377.948151,372.528625 375.021332,360.001984 
	C375.021332,361.458313 375.021332,362.914673 375.051331,365.172668 
z"/>
<path fill="#B16E4F" opacity="1.000000" stroke="none" 
	d="
M418.444916,260.422943 
	C422.268677,254.557373 422.076111,249.039673 417.507172,243.514679 
	C415.760986,241.403091 414.818512,238.626907 413.222260,235.610199 
	C411.297302,241.490738 411.717010,246.798660 413.532013,252.185883 
	C417.123901,262.847229 415.143372,268.225800 405.126648,274.115784 
	C403.529785,274.604065 402.567841,274.853699 401.755219,274.811707 
	C402.624603,273.493225 403.344635,272.466400 404.394043,271.233459 
	C408.431061,265.628357 407.987946,261.709229 402.928528,254.774353 
	C401.594269,254.125397 400.121826,253.358490 398.950989,253.682266 
	C393.555450,255.174240 390.903839,259.854858 387.371155,263.924194 
	C386.003571,263.966766 385.008759,263.993164 384.005676,264.008514 
	C383.997406,263.997467 383.977539,263.977112 384.015381,263.625305 
	C384.714355,261.544952 385.375519,259.816376 386.283051,257.766785 
	C388.912567,250.369064 383.826080,245.223892 381.842987,238.869904 
	C381.214966,235.434906 381.019440,232.209671 379.780182,229.453781 
	C378.959595,227.628937 376.642670,226.476944 374.791077,224.769867 
	C373.380280,224.007767 372.174011,223.499542 370.879517,222.627579 
	C366.379791,214.059280 367.782196,206.004425 371.668152,197.815826 
	C375.016663,195.118729 378.052887,192.533401 381.227325,190.130692 
	C384.065613,187.982437 384.749390,186.060196 382.590057,182.641602 
	C377.678986,174.866562 375.393768,166.213730 376.916138,156.985229 
	C377.831299,151.437561 379.256897,145.957993 380.734344,140.524277 
	C381.910889,136.197174 380.716248,132.843292 376.334259,132.354324 
	C371.370911,131.800476 366.264313,132.621872 361.218506,132.664047 
	C359.564453,132.677872 357.905670,132.125305 356.249054,131.831757 
	C357.581299,130.609039 358.744446,128.636108 360.274597,128.291138 
	C367.619446,126.635231 375.103302,125.206009 380.934631,132.676392 
	C381.827209,120.814262 381.203827,119.119987 373.683929,116.527924 
	C359.510468,111.642426 346.587219,104.640541 335.399597,94.619980 
	C333.261597,92.704987 331.519623,92.609337 329.229065,94.194458 
	C321.762085,99.361725 316.288727,106.031342 312.944397,114.526299 
	C309.326752,123.715569 308.622040,133.253983 308.993561,142.968674 
	C303.695190,132.500748 302.014191,121.230415 302.304230,109.710083 
	C302.733673,92.654984 309.510040,78.613937 322.799622,67.578522 
	C333.100769,59.024635 345.078247,56.693386 357.809570,57.077076 
	C377.892609,57.682327 396.010406,62.903988 408.132111,80.645805 
	C413.857880,89.026260 417.197235,98.179054 418.326782,108.403839 
	C419.270538,116.946815 421.947601,125.288139 423.122894,133.819901 
	C423.733978,138.256119 424.051544,143.529724 422.230804,147.339844 
	C418.309357,155.545822 418.854187,163.807434 419.384033,172.258499 
	C419.776520,178.519028 421.849335,183.901627 425.834625,189.078918 
	C432.218231,197.371979 433.062286,206.686127 427.743622,216.202408 
	C423.447754,223.888626 423.888245,231.747894 427.123688,239.754456 
	C431.183350,249.800598 429.166748,255.506622 419.404297,261.004822 
	C418.723511,260.701721 418.584229,260.562317 418.444916,260.422943 
M398.902435,244.645737 
	C396.796478,239.773880 394.690521,234.902008 392.584534,230.030151 
	C392.281128,230.125671 391.977753,230.221207 391.674347,230.316742 
	C393.036804,237.737442 394.399292,245.158157 395.761749,252.578873 
	C396.073853,252.644058 396.385956,252.709244 396.698090,252.774445 
	C397.432617,250.332306 398.167145,247.890182 398.902435,244.645737 
M415.597748,201.801193 
	C416.063538,202.350250 416.529327,202.899307 417.586182,204.145065 
	C417.514923,197.132156 416.075500,191.871445 410.868622,188.374237 
	C410.361847,188.613220 409.855072,188.852219 409.348297,189.091202 
	C411.296692,193.139191 413.245087,197.187180 415.597748,201.801193 
M385.174622,204.928604 
	C384.900116,203.540085 384.625580,202.151550 384.351074,200.763031 
	C383.608734,200.811691 382.866394,200.860352 382.124084,200.908997 
	C381.730286,204.652267 381.336487,208.395538 380.942688,212.138809 
	C381.459442,212.239685 381.976166,212.340561 382.492920,212.441437 
	C383.340240,210.183502 384.187561,207.925552 385.174622,204.928604 
M403.101318,222.228592 
	C403.317200,223.009308 403.533051,223.790039 403.748901,224.570755 
	C404.154297,224.573792 404.559692,224.576843 404.965118,224.579880 
	C405.686401,220.920624 406.407715,217.261368 407.129028,213.602112 
	C406.463135,213.462875 405.797241,213.323639 405.131348,213.184402 
	C404.473999,215.937744 403.816681,218.691086 403.101318,222.228592 
z"/>
<path fill="#FBBE9A" opacity="1.000000" stroke="none" 
	d="
M308.960938,143.392487 
	C308.622040,133.253983 309.326752,123.715569 312.944397,114.526299 
	C316.288727,106.031342 321.762085,99.361725 329.229065,94.194458 
	C331.519623,92.609337 333.261597,92.704987 335.399597,94.619980 
	C346.587219,104.640541 359.510468,111.642426 373.683929,116.527924 
	C381.203827,119.119987 381.827209,120.814262 380.934631,132.676392 
	C375.103302,125.206009 367.619446,126.635231 360.274597,128.291138 
	C358.744446,128.636108 357.581299,130.609039 356.249054,131.831757 
	C357.905670,132.125305 359.564453,132.677872 361.218506,132.664047 
	C366.264313,132.621872 371.370911,131.800476 376.334259,132.354324 
	C380.716248,132.843292 381.910889,136.197174 380.734344,140.524277 
	C379.256897,145.957993 377.831299,151.437561 376.916138,156.985229 
	C375.393768,166.213730 377.678986,174.866562 382.590057,182.641602 
	C384.749390,186.060196 384.065613,187.982437 381.227325,190.130692 
	C378.052887,192.533401 375.016663,195.118729 371.275452,197.812500 
	C368.402161,199.347839 366.173706,200.695282 363.658875,202.219971 
	C355.890228,207.645233 348.079834,210.710220 338.825500,205.855103 
	C335.205597,203.199203 331.867737,200.732117 328.529877,198.265030 
	C327.635590,197.537857 326.947266,196.065323 326.142578,194.659393 
	C322.892670,188.981430 319.158783,183.527252 316.469330,177.597778 
	C314.110901,172.398163 312.909515,166.673721 311.197083,161.181107 
	C310.440826,155.392838 309.684570,149.604553 308.960938,143.392487 
M319.028229,141.016022 
	C319.028229,141.016022 318.926544,140.789139 318.926544,140.789139 
	C318.926544,140.789139 319.142487,140.918045 319.071930,141.373611 
	C319.299469,141.404175 319.527008,141.434738 319.754547,141.465317 
	C319.522980,141.265640 319.291412,141.065979 319.028229,141.016022 
M356.793671,178.126541 
	C353.090424,175.532532 339.947266,175.077744 336.582581,177.485764 
	C336.256683,177.718994 336.235870,178.378525 335.608856,179.287659 
	C335.657745,179.878922 335.482819,180.646591 335.789001,181.035095 
	C340.710022,187.279358 352.243134,187.211578 357.045746,180.890015 
	C357.359772,180.476669 356.984802,179.539917 356.793671,178.126541 
M332.769623,132.850266 
	C333.871094,132.525314 334.972565,132.200363 336.074036,131.875412 
	C335.271301,130.765854 334.602600,128.843475 333.643066,128.685287 
	C329.124207,127.940361 324.459625,127.033119 319.980621,127.490852 
	C317.347412,127.759949 314.963867,130.472473 312.468048,132.085983 
	C312.760956,132.640915 313.053864,133.195862 313.346771,133.750809 
	C319.435944,130.233185 325.664368,130.340881 332.769623,132.850266 
M362.455902,145.654221 
	C366.705750,149.564636 366.705750,149.564636 373.577789,142.973053 
	C371.933472,141.600082 370.376343,140.090378 368.615448,138.876144 
	C365.585602,136.786896 362.024597,140.160080 362.455902,145.654221 
M325.523926,138.312988 
	C325.013123,139.026184 324.657288,140.004990 323.965759,140.408508 
	C320.110291,142.658340 321.905396,145.502045 323.925140,147.107712 
	C325.013947,147.973312 328.248688,147.303360 329.758850,146.245941 
	C333.531311,143.604462 332.183716,140.690262 325.523926,138.312988 
z"/>
<path fill="#F07955" opacity="1.000000" stroke="none" 
	d="
M384.980438,299.695709 
	C384.980438,299.695709 384.667786,299.990601 384.071655,300.069824 
	C382.557678,301.729248 381.464142,303.235840 380.763977,304.907257 
	C379.765869,307.289856 378.460327,309.767273 378.351654,312.250824 
	C378.146606,316.936127 379.032074,321.669434 378.822937,326.354187 
	C378.686523,329.409241 377.730865,332.545990 376.528168,335.386139 
	C375.912842,336.839325 373.974030,338.651276 372.588379,338.689972 
	C368.103699,338.815216 363.601990,338.124817 359.099701,337.879059 
	C353.687439,337.583588 348.268341,337.407776 342.850616,337.227844 
	C342.390747,337.212555 341.930206,337.597717 341.451080,337.726685 
	C333.797150,339.787079 326.150970,333.821228 325.962952,325.874084 
	C325.792480,318.667572 325.701691,311.421753 324.835602,304.283112 
	C324.312042,299.967773 323.108673,295.393036 320.927002,291.691437 
	C316.278290,283.804108 316.631073,275.423706 317.390717,267.006042 
	C317.535583,265.400757 320.685822,262.632080 322.054260,262.852600 
	C325.555969,263.416931 328.792419,265.482025 332.220490,266.707703 
	C334.008484,267.346954 336.010590,267.905060 337.857544,267.759277 
	C342.390656,267.401459 346.884583,266.571655 351.404022,266.010223 
	C357.175171,265.293335 362.792694,264.496796 367.423920,260.266083 
	C369.531830,258.340454 372.494476,257.350464 375.554626,255.669556 
	C376.498383,258.037933 378.259644,260.288208 377.714233,261.501740 
	C376.163605,264.951660 378.624207,266.427765 380.210815,268.244598 
	C381.885864,270.162628 385.226837,271.442078 385.658905,273.466125 
	C386.684479,278.270477 389.934387,282.836121 388.048767,288.337708 
	C388.040527,288.558624 387.963593,288.994049 387.596436,289.071564 
	C386.852203,290.515961 386.475128,291.882874 386.098083,293.249756 
	C385.777802,294.595123 385.457550,295.940460 385.062286,297.919617 
	C384.984985,298.934204 384.982727,299.314941 384.980438,299.695709 
z"/>
<path fill="#F9C39F" opacity="1.000000" stroke="none" 
	d="
M317.836823,293.144989 
	C316.934021,295.171295 315.668152,297.115479 315.188202,299.237427 
	C312.371826,311.689423 309.669434,324.168518 307.086151,336.671051 
	C306.304321,340.455017 304.581604,343.128754 301.353119,345.489197 
	C279.103638,361.756409 257.051331,378.292969 234.853775,394.631744 
	C231.878754,396.821503 230.549759,399.219818 230.812851,402.975739 
	C231.010452,405.796539 230.253494,408.684204 229.921494,411.542084 
	C229.380615,411.604919 228.839737,411.667755 228.298859,411.730621 
	C227.595444,409.496460 226.892029,407.262268 226.188614,405.028107 
	C225.657730,404.935120 225.126846,404.842133 224.595963,404.749146 
	C223.511230,408.811737 222.426514,412.874298 221.111404,417.799805 
	C216.732285,412.944244 217.524887,407.933929 218.287155,403.497253 
	C219.264221,397.810211 221.749603,392.850891 226.596146,388.721283 
	C242.394699,375.259644 257.702850,361.222717 273.208374,347.416840 
	C275.688843,345.208282 277.938141,342.564301 280.768646,340.956818 
	C290.102631,335.655853 291.439850,326.548157 292.945709,317.295868 
	C295.660156,300.617584 298.597717,283.975677 301.427612,267.316132 
	C302.649323,260.123932 303.835052,252.925598 305.332825,245.061188 
	C306.451782,239.267395 308.742859,235.344421 314.487793,233.896820 
	C317.084900,232.795822 319.350555,231.776276 321.708435,231.179825 
	C319.840302,239.756744 319.168121,248.524826 315.637207,255.929764 
	C309.319336,269.179443 309.039490,281.206604 317.836823,293.144989 
z"/>
<path fill="#EB7D5B" opacity="1.000000" stroke="none" 
	d="
M317.901611,293.546448 
	C309.039490,281.206604 309.319336,269.179443 315.637207,255.929764 
	C319.168121,248.524826 319.840302,239.756744 321.889862,230.947876 
	C322.372223,229.859177 322.765381,229.425507 323.510132,228.996582 
	C324.564941,228.998688 325.268188,228.996017 325.993164,229.417938 
	C325.676880,234.775452 324.331390,239.913300 325.281464,244.584213 
	C326.250885,249.350372 328.433228,254.835495 331.925232,257.926239 
	C339.720825,264.826111 349.254059,264.176880 358.580536,260.591370 
	C367.420166,257.193024 372.554718,250.601791 373.910950,241.358810 
	C374.700684,235.976608 374.661713,230.472809 374.995605,225.023727 
	C376.642670,226.476944 378.959595,227.628937 379.780182,229.453781 
	C381.019440,232.209671 381.214966,235.434906 381.607178,239.103699 
	C382.919098,245.860413 384.477905,251.974121 386.036682,258.087830 
	C385.375519,259.816376 384.714355,261.544952 383.771576,263.635345 
	C383.212982,264.126740 382.936066,264.256317 382.659119,264.385895 
	C383.110748,264.263794 383.562347,264.141693 384.013977,264.019562 
	C385.008759,263.993164 386.003571,263.966766 387.584229,264.277740 
	C390.223999,272.459045 391.710236,280.300262 388.057007,288.116760 
	C389.934387,282.836121 386.684479,278.270477 385.658905,273.466125 
	C385.226837,271.442078 381.885864,270.162628 380.210815,268.244598 
	C378.624207,266.427765 376.163605,264.951660 377.714233,261.501740 
	C378.259644,260.288208 376.498383,258.037933 375.554626,255.669556 
	C372.494476,257.350464 369.531830,258.340454 367.423920,260.266083 
	C362.792694,264.496796 357.175171,265.293335 351.404022,266.010223 
	C346.884583,266.571655 342.390656,267.401459 337.857544,267.759277 
	C336.010590,267.905060 334.008484,267.346954 332.220490,266.707703 
	C328.792419,265.482025 325.555969,263.416931 322.054260,262.852600 
	C320.685822,262.632080 317.535583,265.400757 317.390717,267.006042 
	C316.631073,275.423706 316.278290,283.804108 320.927002,291.691437 
	C323.108673,295.393036 324.312042,299.967773 324.835602,304.283112 
	C325.701691,311.421753 325.792480,318.667572 325.962952,325.874084 
	C326.150970,333.821228 333.797150,339.787079 341.451080,337.726685 
	C341.930206,337.597717 342.390747,337.212555 342.850616,337.227844 
	C348.268341,337.407776 353.687439,337.583588 359.099701,337.879059 
	C363.601990,338.124817 368.103699,338.815216 372.588379,338.689972 
	C373.974030,338.651276 375.912842,336.839325 376.528168,335.386139 
	C377.730865,332.545990 378.686523,329.409241 378.822937,326.354187 
	C379.032074,321.669434 378.146606,316.936127 378.351654,312.250824 
	C378.460327,309.767273 379.765869,307.289856 380.763977,304.907257 
	C381.464142,303.235840 382.557678,301.729248 383.863159,300.121826 
	C384.229248,300.754089 384.325531,301.443024 384.168884,302.068695 
	C380.887115,315.177643 386.200470,327.394257 388.051147,340.354065 
	C387.268433,340.848480 386.510132,340.954620 385.185730,340.753723 
	C383.049347,340.426910 381.479126,340.407104 379.523987,340.469208 
	C375.779297,340.821838 372.419556,341.092499 368.647247,341.252289 
	C366.822815,341.225220 365.410950,341.308990 363.539795,341.305359 
	C357.725494,341.268860 352.370453,341.319763 346.605408,341.265747 
	C344.794830,341.216370 343.394287,341.271881 341.554749,341.235535 
	C338.446625,341.209778 335.777496,341.275848 332.699432,341.225891 
	C331.159271,341.183044 330.028046,341.256165 328.896820,341.329285 
	C326.519196,341.204803 324.141541,341.080322 321.322083,340.872070 
	C320.231812,326.443848 319.603546,312.098450 318.900452,297.756653 
	C318.837585,296.474915 318.289276,295.216919 317.901611,293.546448 
z"/>
<path fill="#FBBE9A" opacity="1.000000" stroke="none" 
	d="
M388.048767,288.337708 
	C391.710236,280.300262 390.223999,272.459045 387.957062,264.261536 
	C390.903839,259.854858 393.555450,255.174240 398.950989,253.682266 
	C400.121826,253.358490 401.594269,254.125397 402.697449,255.059784 
	C402.999603,260.966248 403.532135,266.202911 404.064636,271.439575 
	C403.344635,272.466400 402.624603,273.493225 401.524231,274.838684 
	C403.106995,279.441925 405.070068,283.726532 407.033173,288.011139 
	C407.097565,288.726562 407.161987,289.442017 406.914551,290.758850 
	C404.710754,295.250916 407.319275,298.014923 409.017639,301.006775 
	C409.082062,301.422791 409.146484,301.838806 408.917938,302.781677 
	C409.087677,304.539093 409.550446,305.769714 410.013184,307.000305 
	C410.071625,307.423492 410.130066,307.846710 409.923584,308.758911 
	C410.104065,310.498383 410.549408,311.748840 410.994751,312.999268 
	C411.064423,313.722168 411.134064,314.445038 410.948059,315.694885 
	C411.147797,316.802582 411.603241,317.383331 412.058685,317.964081 
	C412.058685,317.964081 412.001923,317.997375 412.063293,318.332581 
	C412.593567,319.057587 413.250641,319.883392 413.504181,319.773987 
	C421.550323,316.302185 431.084869,319.269470 438.782593,313.853577 
	C439.941040,313.038513 442.595673,314.349976 444.558197,314.677765 
	C443.738739,316.226013 443.296265,318.258545 442.035522,319.239960 
	C436.099762,323.860779 430.172150,328.568176 423.795044,332.524902 
	C417.219299,336.604889 410.525085,341.842255 401.970734,337.000610 
	C401.970734,337.000610 401.872894,336.646851 401.835083,336.188416 
	C401.531403,335.486237 401.265533,335.242523 400.999695,334.998779 
	C400.999695,334.998779 400.902252,334.605347 400.931030,333.986176 
	C398.454681,324.226898 396.055237,315.055847 393.393280,305.961639 
	C392.298584,302.221771 390.638550,298.647369 389.235657,294.997711 
	C389.159332,294.551849 389.083038,294.105988 388.979675,293.005066 
	C388.584137,291.869171 388.215637,291.388367 387.878296,290.589233 
	C387.927521,289.845276 387.945557,289.419678 387.963562,288.994049 
	C387.963593,288.994049 388.040527,288.558624 388.048767,288.337708 
z"/>
<path fill="#F9C39F" opacity="1.000000" stroke="none" 
	d="
M402.027649,337.363647 
	C410.525085,341.842255 417.219299,336.604889 423.795044,332.524902 
	C430.172150,328.568176 436.099762,323.860779 442.035522,319.239960 
	C443.296265,318.258545 443.738739,316.226013 444.558197,314.677765 
	C442.595673,314.349976 439.941040,313.038513 438.782593,313.853577 
	C431.084869,319.269470 421.550323,316.302185 413.504181,319.773987 
	C413.250641,319.883392 412.593567,319.057587 412.079468,318.303925 
	C422.942200,314.099609 434.000732,310.632996 444.716583,306.315796 
	C455.920624,301.801910 466.692963,296.223419 477.856171,291.598267 
	C483.567719,289.231842 486.894531,285.331390 488.926025,279.767303 
	C489.591370,277.944977 490.937073,276.371033 491.971588,274.683502 
	C492.632904,274.926849 493.294250,275.170197 493.955566,275.413544 
	C493.276855,277.998657 492.598114,280.583801 491.773804,283.619568 
	C491.774567,284.072449 491.920868,284.074646 492.067169,284.076843 
	C496.029175,282.913239 500.058044,281.933502 503.931122,280.525360 
	C506.811859,279.477966 509.894318,277.498413 511.128143,281.980743 
	C512.025696,285.241547 511.976532,288.857941 508.065338,290.750854 
	C507.335052,291.104309 506.546356,291.337097 504.328369,292.177063 
	C505.929962,292.840363 506.745239,293.178009 508.163666,293.765472 
	C502.300720,296.313354 497.174713,298.562958 492.022064,300.749756 
	C491.441742,300.996002 490.509125,301.186859 490.079956,300.898071 
	C483.855652,296.709503 480.049591,302.076019 475.645325,304.600067 
	C456.190796,315.749207 436.821533,327.047028 417.381714,338.222046 
	C413.400818,340.510468 409.152771,342.024719 404.571442,339.923767 
	C403.609039,339.482391 402.906738,338.473846 402.027649,337.363647 
z"/>
<path fill="#B16E4F" opacity="1.000000" stroke="none" 
	d="
M325.971405,228.993347 
	C325.268188,228.996017 324.564941,228.998688 323.428589,228.537994 
	C322.995422,222.699005 322.995422,217.323349 322.995422,212.546829 
	C317.386932,218.340042 313.956604,226.357254 314.156311,233.978287 
	C308.742859,235.344421 306.451782,239.267395 305.380371,244.631104 
	C299.243805,231.770950 303.263885,219.642822 309.768799,208.374146 
	C315.323944,198.750748 316.953522,189.724487 312.720428,179.077454 
	C310.685059,173.958160 311.509216,167.701981 311.117767,161.570862 
	C312.909515,166.673721 314.110901,172.398163 316.469330,177.597778 
	C319.158783,183.527252 322.892670,188.981430 326.142578,194.659393 
	C326.947266,196.065323 327.635590,197.537857 328.529877,198.265030 
	C331.867737,200.732117 335.205597,203.199203 338.781067,206.192780 
	C338.721985,207.804108 338.425262,208.888931 337.998688,210.328522 
	C336.816162,215.087418 335.763489,219.491547 334.333740,223.985046 
	C331.294891,225.714050 328.633148,227.353699 325.971405,228.993347 
z"/>
<path fill="#A63735" opacity="1.000000" stroke="none" 
	d="
M347.695923,700.233826 
	C348.264709,703.463196 347.304504,705.157104 343.801605,706.322266 
	C334.387299,709.453674 325.167542,713.176025 315.900360,716.741394 
	C309.775330,719.097900 303.654602,719.825378 297.642883,716.655701 
	C296.348694,715.973389 295.530945,714.387329 294.493744,713.217590 
	C295.567871,712.294128 296.503815,711.048889 297.745544,710.515625 
	C300.168488,709.475037 302.762482,708.832703 306.043213,707.963989 
	C312.377197,710.421570 318.004852,711.597107 324.013062,709.227905 
	C331.868134,706.130493 339.798126,703.223022 347.695923,700.233826 
z"/>
<path fill="#A63735" opacity="1.000000" stroke="none" 
	d="
M428.025085,707.772217 
	C428.456299,707.689758 428.887482,707.607361 429.929382,707.694763 
	C430.975281,707.900574 431.410553,707.936584 431.845795,707.972534 
	C434.510468,708.876343 437.239014,709.633484 439.809479,710.753540 
	C440.890289,711.224426 442.321655,712.443420 442.346710,713.356567 
	C442.372803,714.306885 441.079468,715.619080 440.042480,716.217834 
	C434.855927,719.212769 429.327942,719.618103 423.722717,717.583008 
	C412.964417,713.677124 402.204803,709.764709 391.572296,705.536682 
	C390.358887,705.054199 389.954224,702.538025 389.537842,700.650635 
	C399.429626,703.694763 408.848999,707.442871 418.556763,710.161133 
	C421.276642,710.922668 424.845612,708.651978 428.025085,707.772217 
z"/>
<path fill="#F9C39F" opacity="1.000000" stroke="none" 
	d="
M427.941986,707.436584 
	C424.845612,708.651978 421.276642,710.922668 418.556763,710.161133 
	C408.848999,707.442871 399.429626,703.694763 389.575806,700.264282 
	C389.216003,698.990906 389.181519,697.789612 389.219849,696.142090 
	C393.119385,695.561523 396.946106,695.427368 401.231049,695.316040 
	C401.376007,698.672668 403.771423,699.255371 406.220947,700.028259 
	C413.457062,702.311401 420.649414,704.733276 427.941986,707.436584 
z"/>
<path fill="#F9C39F" opacity="1.000000" stroke="none" 
	d="
M347.791138,699.812256 
	C339.798126,703.223022 331.868134,706.130493 324.013062,709.227905 
	C318.004852,711.597107 312.377197,710.421570 306.420349,707.852783 
	C314.349091,705.298950 322.692688,702.900391 330.940613,700.208679 
	C332.764832,699.613281 334.250641,697.980957 335.935913,696.468506 
	C339.655853,696.128113 343.332184,696.145386 347.449219,696.048828 
	C347.888733,697.086914 347.887543,698.238831 347.791138,699.812256 
z"/>
<path fill="#F9C39F" opacity="1.000000" stroke="none" 
	d="
M389.184906,295.391479 
	C390.638550,298.647369 392.298584,302.221771 393.393280,305.961639 
	C396.055237,315.055847 398.454681,324.226898 400.933105,333.783569 
	C399.438629,330.430908 397.692261,326.743347 396.559204,322.876099 
	C393.926849,313.891876 391.590485,304.821014 389.184906,295.391479 
z"/>
<path fill="#F9C39F" opacity="1.000000" stroke="none" 
	d="
M407.051819,287.582611 
	C405.070068,283.726532 403.106995,279.441925 401.374878,275.130341 
	C402.567841,274.853699 403.529785,274.604065 404.859741,274.329590 
	C405.841980,278.587830 406.456207,282.870972 407.051819,287.582611 
z"/>
<path fill="#F9C39F" opacity="1.000000" stroke="none" 
	d="
M409.033508,300.588318 
	C407.319275,298.014923 404.710754,295.250916 406.926086,291.117981 
	C407.849457,293.973724 408.449402,297.071808 409.033508,300.588318 
z"/>
<path fill="#F9C39F" opacity="1.000000" stroke="none" 
	d="
M401.398438,595.316528 
	C401.096039,590.812805 401.011993,586.017334 401.022278,580.811890 
	C401.283325,585.276184 401.450043,590.150452 401.398438,595.316528 
z"/>
<path fill="#F9C39F" opacity="1.000000" stroke="none" 
	d="
M410.036072,306.637238 
	C409.550446,305.769714 409.087677,304.539093 408.929230,303.097351 
	C409.508667,304.015533 409.783813,305.144836 410.036072,306.637238 
z"/>
<path fill="#F9C39F" opacity="1.000000" stroke="none" 
	d="
M411.018311,312.637512 
	C410.549408,311.748840 410.104065,310.498383 409.932159,309.079407 
	C410.484344,310.032471 410.763092,311.154114 411.018311,312.637512 
z"/>
<path fill="#EB7D5B" opacity="1.000000" stroke="none" 
	d="
M387.596405,289.071564 
	C387.945557,289.419678 387.927521,289.845276 387.668152,290.789185 
	C387.274445,291.858582 387.122009,292.409698 386.969604,292.960846 
	C386.969604,292.960846 386.541229,293.127502 386.319641,293.188629 
	C386.475128,291.882874 386.852203,290.515961 387.596405,289.071564 
z"/>
<path fill="#F9C39F" opacity="1.000000" stroke="none" 
	d="
M412.036865,317.674255 
	C411.603241,317.383331 411.147797,316.802582 410.958374,316.058014 
	C411.487915,316.390961 411.751465,316.887695 412.036865,317.674255 
z"/>
<path fill="#F9C39F" opacity="1.000000" stroke="none" 
	d="
M387.308838,292.980957 
	C387.122009,292.409698 387.274445,291.858582 387.636963,291.107513 
	C388.215637,291.388367 388.584137,291.869171 388.979828,292.665192 
	C388.554047,292.987305 388.101074,292.994202 387.308838,292.980957 
z"/>
<path fill="#F9C39F" opacity="1.000000" stroke="none" 
	d="
M431.730591,707.776855 
	C431.410553,707.936584 430.975281,707.900574 430.258850,707.687805 
	C430.523590,707.534363 431.069519,707.557739 431.730591,707.776855 
z"/>
<path fill="#EB7D5B" opacity="1.000000" stroke="none" 
	d="
M385.185303,299.613800 
	C384.982727,299.314941 384.984985,298.934204 384.996887,298.267395 
	C385.134369,298.498199 385.262268,299.015045 385.185303,299.613800 
z"/>
<path fill="#B16E4F" opacity="1.000000" stroke="none" 
	d="
M419.061096,261.060272 
	C418.619171,261.453522 417.978912,261.627563 417.338684,261.801636 
	C417.534119,261.446655 417.729553,261.091705 418.184937,260.579834 
	C418.584229,260.562317 418.723511,260.701721 419.061096,261.060272 
z"/>
<path fill="#F9C39F" opacity="1.000000" stroke="none" 
	d="
M401.071716,335.259644 
	C401.265533,335.242523 401.531403,335.486237 401.849731,336.005493 
	C401.649384,336.027496 401.396545,335.774017 401.071716,335.259644 
z"/>
<path fill="#104147" opacity="1.000000" stroke="none" 
	d="
M328.932129,341.763184 
	C330.028046,341.256165 331.159271,341.183044 332.661987,341.661194 
	C333.015228,344.026886 333.154785,345.859772 332.945190,347.651794 
	C332.531952,351.184235 334.053894,352.179352 337.451569,352.135834 
	C340.687927,352.094421 342.495209,351.438202 342.083649,347.755920 
	C341.846741,345.636169 342.010376,343.471710 341.993713,341.327362 
	C343.394287,341.271881 344.794830,341.216370 346.585999,341.700409 
	C346.959900,353.456177 345.963074,351.927124 353.953247,352.003448 
	C364.261292,352.101898 364.261963,352.031128 363.999054,341.392761 
	C365.410950,341.308990 366.822815,341.225220 368.620758,341.687347 
	C368.992249,343.714813 369.154724,345.223755 368.930145,346.672729 
	C368.239624,351.127686 370.172516,352.123413 374.427307,352.218353 
	C379.135223,352.323395 380.632660,350.721771 380.059052,346.306671 
	C379.806152,344.359894 379.946869,342.361969 379.908875,340.387268 
	C381.479126,340.407104 383.049347,340.426910 384.803711,340.799866 
	C384.623260,345.301788 384.258698,349.450592 383.857910,354.011841 
	C377.111877,354.011841 369.297882,354.143921 361.492310,353.945587 
	C358.451080,353.868286 356.705292,354.694122 356.549408,357.874573 
	C356.403717,360.847626 356.113098,363.826416 356.189728,366.794830 
	C356.339417,372.592987 356.756195,378.383728 356.956787,384.181213 
	C357.113525,388.710236 353.716125,387.954468 350.971954,387.967529 
	C348.199585,387.980713 344.978424,388.640289 345.005707,384.126923 
	C345.055054,375.962372 344.718445,367.782349 345.127808,359.638153 
	C345.370148,354.816467 343.597778,353.618011 339.164581,353.921051 
	C334.198120,354.260590 329.190521,353.999054 323.886261,353.756653 
	C332.321533,352.608673 327.975281,346.305420 328.932129,341.763184 
M347.009033,363.544983 
	C347.009003,369.175812 347.018799,374.806641 347.004211,380.437439 
	C346.998108,382.792999 346.645416,385.099060 350.336792,385.081573 
	C353.755463,385.065369 355.129883,383.821930 355.016937,380.387848 
	C354.853729,375.424957 355.054077,370.450989 354.952545,365.484741 
	C354.892212,362.531799 355.029510,359.425049 354.123474,356.705414 
	C353.700317,355.435150 351.075684,354.586517 349.316406,354.259491 
	C348.774872,354.158813 347.435120,356.325439 347.108521,357.617584 
	C346.714935,359.174805 347.011200,360.906403 347.009033,363.544983 
z"/>
<path fill="#104147" opacity="1.000000" stroke="none" 
	d="
M375.036316,364.771851 
	C375.021332,362.914673 375.021332,361.458313 375.021332,360.001984 
	C377.948151,372.528625 384.889130,381.344086 397.513458,385.301971 
	C385.011017,384.007477 378.007507,376.800171 375.036316,364.771851 
z"/>
<path fill="#104147" opacity="1.000000" stroke="none" 
	d="
M328.995911,370.997284 
	C328.210785,372.900482 327.425629,374.803711 326.319641,376.853577 
	C325.998749,377.000214 325.967468,376.974243 325.967468,376.974243 
	C326.772339,375.085815 327.577240,373.197388 328.691040,371.154480 
	C329.000000,371.000000 328.995911,370.997284 328.995911,370.997284 
z"/>
<path fill="#104147" opacity="1.000000" stroke="none" 
	d="
M321.030396,382.024414 
	C320.105042,383.023071 319.179657,384.021698 318.254242,385.020325 
	C317.911865,384.625153 317.569489,384.230011 317.227112,383.834869 
	C318.251801,383.240051 319.276459,382.645264 320.651611,382.025696 
	C321.002106,382.000916 321.030396,382.024414 321.030396,382.024414 
z"/>
<path fill="#104147" opacity="1.000000" stroke="none" 
	d="
M329.002441,371.002441 
	C329.153259,369.819183 329.301605,368.633484 329.449982,367.447784 
	C329.841400,367.535309 330.232819,367.622833 330.624268,367.710388 
	C330.258148,368.685272 329.891998,369.660156 329.260895,370.816162 
	C328.995911,370.997284 329.000000,371.000000 329.002441,371.002441 
z"/>
<path fill="#104147" opacity="1.000000" stroke="none" 
	d="
M321.965302,380.972687 
	C322.065460,380.646362 322.253510,380.382721 322.766541,380.091614 
	C323.003601,380.001434 323.039978,380.032257 323.039978,380.032257 
	C322.952148,380.367279 322.766907,380.634888 322.242737,380.919250 
	C322.001251,381.003479 321.965302,380.972687 321.965302,380.972687 
z"/>
<path fill="#104147" opacity="1.000000" stroke="none" 
	d="
M322.016632,381.021515 
	C321.937317,381.365417 321.750916,381.625641 321.251648,381.922302 
	C321.030396,382.024414 321.002106,382.000916 320.989990,381.986603 
	C321.077850,381.651672 321.263031,381.391815 321.749390,381.082703 
	C321.965302,380.972687 322.001251,381.003479 322.016632,381.021515 
z"/>
<path fill="#104147" opacity="1.000000" stroke="none" 
	d="
M324.048401,379.039154 
	C323.955109,379.369080 323.767395,379.631409 323.262604,379.929199 
	C323.039978,380.032257 323.003601,380.001434 322.987610,379.983032 
	C323.075378,379.644043 323.261566,379.382111 323.767273,379.089966 
	C324.004364,379.001129 324.048401,379.039154 324.048401,379.039154 
z"/>
<path fill="#104147" opacity="1.000000" stroke="none" 
	d="
M323.985046,378.979340 
	C324.070557,378.636505 324.259277,378.376282 324.766907,378.088623 
	C325.001892,378.000305 325.034332,378.027161 325.034332,378.027161 
	C324.947113,378.357880 324.765656,378.624359 324.269165,378.932922 
	C324.048401,379.039154 324.004364,379.001129 323.985046,378.979340 
z"/>
<path fill="#104147" opacity="1.000000" stroke="none" 
	d="
M326.011902,377.015686 
	C325.930115,377.355713 325.746552,377.618225 325.254303,377.922913 
	C325.034332,378.027161 325.001892,378.000305 324.987854,377.983948 
	C325.071838,377.644745 325.256287,377.382751 325.747314,377.077911 
	C325.967468,376.974243 325.998749,377.000214 326.011902,377.015686 
z"/>
<path fill="#FBBE9A" opacity="1.000000" stroke="none" 
	d="
M325.993164,229.417938 
	C328.633148,227.353699 331.294891,225.714050 334.620087,223.907715 
	C337.177826,222.211929 339.072113,220.682831 341.046448,218.805511 
	C342.909576,217.054306 344.500031,215.206879 346.513031,214.334259 
	C351.898376,211.999756 357.465027,210.083405 363.046753,208.451950 
	C363.162872,210.895050 363.163239,212.888000 363.225922,214.878998 
	C363.443237,221.784485 364.142822,222.508163 370.967743,222.991318 
	C372.174011,223.499542 373.380280,224.007767 374.791077,224.769867 
	C374.661713,230.472809 374.700684,235.976608 373.910950,241.358810 
	C372.554718,250.601791 367.420166,257.193024 358.580536,260.591370 
	C349.254059,264.176880 339.720825,264.826111 331.925232,257.926239 
	C328.433228,254.835495 326.250885,249.350372 325.281464,244.584213 
	C324.331390,239.913300 325.676880,234.775452 325.993164,229.417938 
z"/>
<path fill="#FDFFFE" opacity="1.000000" stroke="none" 
	d="
M370.879517,222.627579 
	C364.142822,222.508163 363.443237,221.784485 363.225922,214.878998 
	C363.163239,212.888000 363.162872,210.895050 363.143738,208.084259 
	C363.417480,205.524612 363.681335,203.783676 363.945221,202.042740 
	C366.173706,200.695282 368.402161,199.347839 371.023315,198.003723 
	C367.782196,206.004425 366.379791,214.059280 370.879517,222.627579 
z"/>
<path fill="#FBBE9A" opacity="1.000000" stroke="none" 
	d="
M398.902039,245.046890 
	C398.167145,247.890182 397.432617,250.332306 396.698090,252.774445 
	C396.385956,252.709244 396.073853,252.644058 395.761749,252.578873 
	C394.399292,245.158157 393.036804,237.737442 391.674347,230.316742 
	C391.977753,230.221207 392.281128,230.125671 392.584534,230.030151 
	C394.690521,234.902008 396.796478,239.773880 398.902039,245.046890 
z"/>
<path fill="#FDFFFE" opacity="1.000000" stroke="none" 
	d="
M415.395630,201.518188 
	C413.245087,197.187180 411.296692,193.139191 409.348297,189.091202 
	C409.855072,188.852219 410.361847,188.613220 410.868622,188.374237 
	C416.075500,191.871445 417.514923,197.132156 417.586182,204.145065 
	C416.529327,202.899307 416.063538,202.350250 415.395630,201.518188 
z"/>
<path fill="#FDFFFE" opacity="1.000000" stroke="none" 
	d="
M404.394043,271.233459 
	C403.532135,266.202911 402.999603,260.966248 402.698151,255.444153 
	C407.987946,261.709229 408.431061,265.628357 404.394043,271.233459 
z"/>
<path fill="#FBBE9A" opacity="1.000000" stroke="none" 
	d="
M386.283081,257.766785 
	C384.477905,251.974121 382.919098,245.860413 381.596130,239.512909 
	C383.826080,245.223892 388.912567,250.369064 386.283081,257.766785 
z"/>
<path fill="#F9C39F" opacity="1.000000" stroke="none" 
	d="
M385.104736,205.298096 
	C384.187561,207.925552 383.340240,210.183502 382.492920,212.441437 
	C381.976166,212.340561 381.459442,212.239685 380.942688,212.138809 
	C381.336487,208.395538 381.730286,204.652267 382.124084,200.908997 
	C382.866394,200.860352 383.608734,200.811691 384.351074,200.763031 
	C384.625580,202.151550 384.900116,203.540085 385.104736,205.298096 
z"/>
<path fill="#F9C39F" opacity="1.000000" stroke="none" 
	d="
M403.130341,221.836517 
	C403.816681,218.691086 404.473999,215.937744 405.131348,213.184402 
	C405.797241,213.323639 406.463135,213.462875 407.129028,213.602112 
	C406.407715,217.261368 405.686401,220.920624 404.965118,224.579880 
	C404.559692,224.576843 404.154297,224.573792 403.748901,224.570755 
	C403.533051,223.790039 403.317200,223.009308 403.130341,221.836517 
z"/>
<path fill="#EB7D5B" opacity="1.000000" stroke="none" 
	d="
M363.658875,202.219971 
	C363.681335,203.783676 363.417480,205.524612 363.056610,207.633240 
	C357.465027,210.083405 351.898376,211.999756 346.513031,214.334259 
	C344.500031,215.206879 342.909576,217.054306 340.769043,218.504913 
	C339.650574,215.692947 338.889557,212.833359 338.128540,209.973755 
	C338.425262,208.888931 338.721985,207.804108 339.063110,206.381592 
	C348.079834,210.710220 355.890228,207.645233 363.658875,202.219971 
z"/>
<path fill="#FDFFFE" opacity="1.000000" stroke="none" 
	d="
M356.930298,178.846634 
	C356.984802,179.539917 357.359772,180.476669 357.045746,180.890015 
	C352.243134,187.211578 340.710022,187.279358 335.789001,181.035095 
	C335.482819,180.646591 335.657745,179.878922 336.304413,179.093079 
	C343.643433,178.881210 350.286865,178.863922 356.930298,178.846634 
z"/>
<path fill="#B16E4F" opacity="1.000000" stroke="none" 
	d="
M332.371826,132.707581 
	C325.664368,130.340881 319.435944,130.233185 313.346771,133.750809 
	C313.053864,133.195862 312.760956,132.640915 312.468048,132.085983 
	C314.963867,130.472473 317.347412,127.759949 319.980621,127.490852 
	C324.459625,127.033119 329.124207,127.940361 333.643066,128.685287 
	C334.602600,128.843475 335.271301,130.765854 336.074036,131.875412 
	C334.972565,132.200363 333.871094,132.525314 332.371826,132.707581 
z"/>
<path fill="#104147" opacity="1.000000" stroke="none" 
	d="
M362.304871,145.295715 
	C362.024597,140.160080 365.585602,136.786896 368.615448,138.876144 
	C370.376343,140.090378 371.933472,141.600082 373.577789,142.973053 
	C366.705750,149.564636 366.705750,149.564636 362.304871,145.295715 
z"/>
<path fill="#104147" opacity="1.000000" stroke="none" 
	d="
M325.901367,138.291901 
	C332.183716,140.690262 333.531311,143.604462 329.758850,146.245941 
	C328.248688,147.303360 325.013947,147.973312 323.925140,147.107712 
	C321.905396,145.502045 320.110291,142.658340 323.965759,140.408508 
	C324.657288,140.004990 325.013123,139.026184 325.901367,138.291901 
z"/>
<path fill="#EB7D5B" opacity="1.000000" stroke="none" 
	d="
M356.862000,178.486588 
	C350.286865,178.863922 343.643433,178.881210 336.536682,178.869324 
	C336.235870,178.378525 336.256683,177.718994 336.582581,177.485764 
	C339.947266,175.077744 353.090424,175.532532 356.862000,178.486588 
z"/>
<path fill="#104147" opacity="1.000000" stroke="none" 
	d="
M319.059845,140.866302 
	C319.291412,141.065979 319.522980,141.265640 319.754547,141.465317 
	C319.527008,141.434738 319.299469,141.404175 319.079163,141.144989 
	C319.086395,140.916367 319.059845,140.866302 319.059845,140.866302 
z"/>
<path fill="#104147" opacity="1.000000" stroke="none" 
	d="
M319.114441,140.917206 
	C319.142487,140.918045 318.926544,140.789139 318.926544,140.789139 
	C318.926544,140.789139 319.028229,141.016022 319.044037,140.941162 
	C319.059845,140.866302 319.086395,140.916367 319.114441,140.917206 
z"/>
<path fill="#FDFFFE" opacity="1.000000" stroke="none" 
	d="
M314.487793,233.896820 
	C313.956604,226.357254 317.386932,218.340042 322.995422,212.546829 
	C322.995422,217.323349 322.995422,222.699005 323.076965,228.533249 
	C322.765381,229.425507 322.372223,229.859177 321.797668,230.524796 
	C319.350555,231.776276 317.084900,232.795822 314.487793,233.896820 
z"/>
<path fill="#165E66" opacity="1.000000" stroke="none" 
	d="
M363.539795,341.305359 
	C364.261963,352.031128 364.261292,352.101898 353.953247,352.003448 
	C345.963074,351.927124 346.959900,353.456177 346.995972,341.805298 
	C352.370453,341.319763 357.725494,341.268860 363.539795,341.305359 
z"/>
<path fill="#165E66" opacity="1.000000" stroke="none" 
	d="
M379.523987,340.469208 
	C379.946869,342.361969 379.806152,344.359894 380.059052,346.306671 
	C380.632660,350.721771 379.135223,352.323395 374.427307,352.218353 
	C370.172516,352.123413 368.239624,351.127686 368.930145,346.672729 
	C369.154724,345.223755 368.992249,343.714813 369.033295,341.798218 
	C372.419556,341.092499 375.779297,340.821838 379.523987,340.469208 
z"/>
<path fill="#165E66" opacity="1.000000" stroke="none" 
	d="
M341.554749,341.235535 
	C342.010376,343.471710 341.846741,345.636169 342.083649,347.755920 
	C342.495209,351.438202 340.687927,352.094421 337.451569,352.135834 
	C334.053894,352.179352 332.531952,351.184235 332.945190,347.651794 
	C333.154785,345.859772 333.015228,344.026886 333.070923,341.777191 
	C335.777496,341.275848 338.446625,341.209778 341.554749,341.235535 
z"/>
<path fill="#B16E4F" opacity="1.000000" stroke="none" 
	d="
M384.005676,264.008514 
	C383.562347,264.141693 383.110748,264.263794 382.659119,264.385895 
	C382.936066,264.256317 383.212982,264.126740 383.733734,263.987122 
	C383.977539,263.977112 383.997406,263.997467 384.005676,264.008514 
z"/>
<path fill="#FDFFFE" opacity="1.000000" stroke="none" 
	d="
M492.034241,284.041290 
	C491.920868,284.074646 491.774567,284.072449 491.779144,284.005157 
	C491.930023,283.940094 492.001343,284.005737 492.034241,284.041290 
z"/>
<path fill="#FDFFFE" opacity="1.000000" stroke="none" 
	d="
M337.998688,210.328522 
	C338.889557,212.833359 339.650574,215.692947 340.689026,218.853134 
	C339.072113,220.682831 337.177826,222.211929 334.997192,223.818359 
	C335.763489,219.491547 336.816162,215.087418 337.998688,210.328522 
z"/>
<path fill="#165E66" opacity="1.000000" stroke="none" 
	d="
M347.008942,363.053772 
	C347.011200,360.906403 346.714935,359.174805 347.108521,357.617584 
	C347.435120,356.325439 348.774872,354.158813 349.316406,354.259491 
	C351.075684,354.586517 353.700317,355.435150 354.123474,356.705414 
	C355.029510,359.425049 354.892212,362.531799 354.952545,365.484741 
	C355.054077,370.450989 354.853729,375.424957 355.016937,380.387848 
	C355.129883,383.821930 353.755463,385.065369 350.336792,385.081573 
	C346.645416,385.099060 346.998108,382.792999 347.004211,380.437439 
	C347.018799,374.806641 347.009003,369.175812 347.008942,363.053772 
z"/>
</svg>