<svg width="245" height="671" viewBox="0 0 245 671" fill="none" xmlns="http://www.w3.org/2000/svg">
<path d="M97.5169 124.153C97.5169 124.153 97.3579 122.829 104.233 122.829C111.108 122.829 139.437 122.351 141.335 124.153C143.233 125.954 120.483 136.829 120.483 136.829C120.483 136.829 101.806 133.929 101.53 132.867C101.255 131.805 97.5169 124.153 97.5169 124.153Z" fill="#102051"/>
<path d="M175.995 614.685L175.905 636.246H160.336L159.561 614.685H175.995Z" fill="#F2A981"/>
<path d="M157.547 630.557L178.916 629.215V641.961H175.707L175.132 645.842L161.475 645.142L159.032 641.386H157.02C156.733 640.955 157.547 630.557 157.547 630.557Z" fill="#CFE6FF"/>
<path d="M178.916 641.961L159.033 641.386H157.02L159.752 642.492L160.407 643.5L167.778 642.44L175.379 644.18L175.534 643.129L178.916 641.961Z" fill="#102051"/>
<path d="M175.132 645.842L176.522 649.737L182.751 657.102V661.583L169.95 667.452L153.331 662.229V656.647L160.326 650.298L161.475 645.142L175.132 645.842Z" fill="#153F6D"/>
<path d="M182.751 661.127V664.673L170.676 670.998L153.331 664.876V662.229L169.95 667.452L182.751 661.127Z" fill="#152036"/>
<path d="M171.516 649.737H164.041L164.747 648.478H170.245L171.516 649.737Z" fill="#152036"/>
<path d="M172.904 652.176H162.267L163.215 650.916H172.342L172.904 652.176Z" fill="#152036"/>
<path d="M60.1801 614.685L57.1691 636.246H41.6011L43.7471 614.685H60.1801Z" fill="#F2A981"/>
<path d="M41.015 628.88L60.1799 630.461V641.961H56.971L56.3959 645.842L39.5769 644.98L40.296 641.386C40.296 641.386 39.8649 641.673 39.5769 641.242C39.2909 640.811 41.015 628.88 41.015 628.88Z" fill="#CFE6FF"/>
<path d="M0 662.229V664.673H40.297L42.741 662.229L45.087 664.673L58.696 663.451V658.492H45.999H27.407L0 662.229Z" fill="#152036"/>
<path d="M60.1799 641.961L40.2969 641.386L56.5399 644.872L56.7979 643.129L60.1799 641.961Z" fill="#102051"/>
<path d="M56.397 645.842L58.697 649.436V658.492L57.547 660.792L44.322 662.086L43.172 660.792C43.172 660.792 41.159 661.942 40.297 662.086C39.434 662.23 0 662.23 0 662.23L0.0970154 657.19L26.066 652.168L39.578 644.981L56.397 645.842Z" fill="#153F6D"/>
<path d="M34.0129 647.94L40.7279 649.508L39.5459 650.298L32.5349 648.726L34.0129 647.94Z" fill="#152036"/>
<path d="M30.8261 649.737L37.5411 651.305L36.3591 652.095L29.3481 650.523L30.8261 649.737Z" fill="#152036"/>
<path d="M66.5341 288.25L58.9431 380.146H48.1521L44.4651 282.603L66.5341 288.25Z" fill="#F2A981"/>
<path d="M66.2491 288.511C67.6428 282.578 63.9634 276.639 58.031 275.246C52.0986 273.852 46.1596 277.531 44.7659 283.464C43.3722 289.396 47.0516 295.335 52.9841 296.729C58.9165 298.122 64.8555 294.443 66.2491 288.511Z" fill="#F2A981"/>
<path d="M54.132 386.194C57.4722 386.194 60.18 383.486 60.18 380.146C60.18 376.806 57.4722 374.098 54.132 374.098C50.7918 374.098 48.084 376.806 48.084 380.146C48.084 383.486 50.7918 386.194 54.132 386.194Z" fill="#F2A981"/>
<path d="M42.731 252.397C39.727 296.846 42.61 370.99 42.61 370.99L63.44 368.597C63.44 368.597 64.662 359.588 66.315 355.564C67.866 351.789 65.79 352.434 66.317 345.647C67.229 333.906 68.968 305.777 70.783 280.161C71.375 271.807 69.73 259.628 70.187 252.396L64.364 242.417L42.731 252.397Z" fill="#356AB0"/>
<path d="M56.7219 268.142C64.4533 268.142 70.7209 261.874 70.7209 254.143C70.7209 246.411 64.4533 240.144 56.7219 240.144C48.9905 240.144 42.7229 246.411 42.7229 254.143C42.7229 261.874 48.9905 268.142 56.7219 268.142Z" fill="#356AB0"/>
<path d="M144.81 366.121C159.378 367.442 170.876 348.253 185.483 348.691L176.923 305.272H64.9229L61.6299 344.433C84.1369 370.99 118.185 363.707 144.81 366.121Z" fill="#152036"/>
<path d="M142.223 61.2478C153.723 51.4728 151.423 65.2728 151.615 70.2558C151.807 75.2388 148.548 84.8218 143.948 83.6718C139.348 82.5218 142.223 61.2478 142.223 61.2478Z" fill="url(#paint0_linear_8_194)"/>
<path d="M148.791 73.1638L148.305 73.0458C148.86 70.7688 150.172 64.5478 149.594 63.1198C149.302 62.4008 148.728 62.2278 148.298 62.2098C147.405 62.1838 146.424 62.7388 146.039 63.4988L145.594 63.2728C146.069 62.3368 147.26 61.6578 148.319 61.7098C149.134 61.7438 149.753 62.1778 150.057 62.9318C150.813 64.8008 148.874 72.8228 148.791 73.1638Z" fill="#102051"/>
<path d="M146.595 70.7021L145.589 73.0082L146.049 73.2085L147.054 70.9024L146.595 70.7021Z" fill="#102051"/>
<path d="M97.9239 61.2478C86.4239 51.4728 88.7239 65.2728 88.5319 70.2558C88.3399 75.2388 91.5989 84.8218 96.1989 83.6718C100.799 82.5218 97.9239 61.2478 97.9239 61.2478Z" fill="url(#paint1_linear_8_194)"/>
<path d="M91.2389 73.1638C91.1559 72.8238 89.2159 64.8008 89.9719 62.9328C90.2779 62.1788 90.8949 61.7448 91.7099 61.7108C92.7789 61.6658 93.9609 62.3378 94.4349 63.2738L93.9889 63.4998C93.6049 62.7408 92.6219 62.1868 91.7309 62.2108C91.3009 62.2288 90.7269 62.4018 90.4359 63.1208C89.8569 64.5488 91.1699 70.7698 91.7239 73.0468L91.2389 73.1638Z" fill="#102051"/>
<path d="M93.4515 70.6991L92.9932 70.8991L93.9989 73.2043L94.4572 73.0044L93.4515 70.6991Z" fill="#102051"/>
<path d="M138.342 105.068V131.805C138.697 142.337 130.713 151.053 121.215 151.755C110.778 152.527 100.942 143.442 101.255 131.805C101.255 122.893 101.255 113.98 101.255 105.068C101.733 95.3158 109.438 87.5598 118.622 86.9878C128.617 86.3658 137.777 94.4148 138.342 105.068Z" fill="#F2A981"/>
<path d="M124.026 124.442C123.306 124.442 122.137 124.29 121.034 123.479C119.609 122.43 118.74 120.614 118.454 118.081L119.025 118.017C119.293 120.384 120.084 122.066 121.375 123.017C122.897 124.138 124.599 123.829 124.614 123.825L124.722 124.389C124.693 124.394 124.431 124.442 124.026 124.442Z" fill="#0B131D"/>
<path d="M138.342 105.068V116.344C135.479 117.718 132.328 118.437 129.125 118.437H118.458C115.181 118.437 111.944 117.684 109.028 116.246L108.068 115.769C105.371 114.441 103.06 112.589 101.254 110.376V105.068H138.342Z" fill="#102051"/>
<path d="M151.684 21.5728C153.723 33.0728 146.51 66.4218 146.51 66.4218H122.098H92.198C92.198 66.4218 87.598 32.4968 92.198 19.8478C96.798 7.19784 151.684 21.5728 151.684 21.5728Z" fill="#102051"/>
<path d="M94.449 32.1148C93.396 32.1148 92.282 31.8128 91.268 31.2218C87.662 29.1218 85.1391 25.1198 84.9901 21.2638C84.8611 17.9158 86.3711 14.6428 89.2441 12.0488C92.7701 8.86485 97.809 7.19984 102.078 7.80184C106.64 8.44784 111.261 12.5218 110.868 17.5588L110.37 17.5198C110.741 12.7628 106.346 8.91084 102.008 8.29684C97.879 7.71384 93 9.33084 89.579 12.4198C86.819 14.9128 85.367 18.0468 85.491 21.2438C85.634 24.9368 88.057 28.7728 91.521 30.7898C93.105 31.7118 94.938 31.8728 96.305 31.2138L96.523 31.6638C95.897 31.9658 95.188 32.1148 94.449 32.1148Z" fill="#102051"/>
<path d="M91.2111 29.9228C87.3571 27.2638 85.5391 22.0788 86.8881 17.5948C88.2361 13.1108 92.6131 9.78883 97.2951 9.69683C99.8981 9.63683 102.421 10.5198 104.847 11.3648C106.721 12.0178 108.66 12.6938 110.629 12.9338L110.569 13.4298C108.547 13.1828 106.583 12.4988 104.683 11.8368C102.298 11.0058 99.8391 10.1418 97.3061 10.1958C92.8351 10.2838 88.6561 13.4558 87.3681 17.7378C86.0801 22.0198 87.8161 26.9708 91.4971 29.5108L91.2111 29.9228Z" fill="#102051"/>
<path d="M150.057 43.7608L149.594 43.5718C152.492 36.5078 153.191 28.5098 151.563 21.0508L152.051 20.9448C153.7 28.5018 152.992 36.6048 150.057 43.7608Z" fill="#102051"/>
<path d="M134.778 114.101C131.873 115.718 128.603 116.567 125.279 116.567H115.221C112.126 116.567 109.076 115.832 106.322 114.422L105.419 113.96C98.8931 110.62 94.7881 103.906 94.7881 96.5748V32.5578L116.061 29.6428L144.81 32.5578V97.0368C144.809 104.123 140.97 110.654 134.778 114.101Z" fill="#F2A981"/>
<path d="M144.81 88.1688V97.0348C144.81 104.125 140.969 110.657 134.776 114.101C131.872 115.717 128.601 116.568 125.277 116.568H115.22C112.127 116.568 109.073 115.832 106.319 114.423L105.416 113.957C98.89 110.616 94.7839 103.906 94.7839 96.5748V87.7088C94.7839 90.9428 106.439 84.5918 117.127 86.6838C119.854 87.2178 121.868 87.6968 126.489 86.2598C135.541 83.4438 144.81 90.9728 144.81 88.1688Z" fill="url(#paint2_linear_8_194)"/>
<path d="M128.074 62.1368C129.47 60.5558 132.435 60.9958 133.028 61.0838C133.68 61.1808 134.343 61.2848 135.108 61.6978C136.954 62.6928 137.506 64.4618 137.456 64.8598C137.445 64.9498 137.413 65.0098 137.366 65.0478C137.186 65.1918 136.78 64.9438 136.642 64.8598C135.887 64.4028 135.255 63.4798 135.013 63.1828C133.697 61.5668 130.119 61.4898 128.401 62.6558C128.144 62.8298 127.637 63.2298 127.538 63.1348C127.44 63.0408 127.765 62.4858 128.074 62.1368Z" fill="#D68056"/>
<path d="M129.971 67.2488C131.507 67.5998 133.524 67.5538 135.028 67.2708C135.577 67.1668 135.979 67.6208 135.558 67.8738C134.853 68.2968 133.857 68.6618 132.498 68.6978C130.866 68.7408 129.911 68.2868 129.36 67.8078C129.032 67.5228 129.455 67.1308 129.971 67.2488Z" fill="#D68056"/>
<path d="M136.517 58.9778L127.9 56.9838C127.232 56.8288 126.813 56.1568 126.967 55.4888C127.122 54.8208 127.794 54.4018 128.462 54.5558L137.079 56.5498C137.747 56.7038 138.166 57.3768 138.012 58.0448C137.857 58.7118 137.184 59.1318 136.517 58.9778Z" fill="#102051"/>
<path d="M110.567 62.1368C109.171 60.5558 106.206 60.9958 105.613 61.0838C104.961 61.1808 104.298 61.2848 103.533 61.6978C101.687 62.6928 101.135 64.4618 101.185 64.8598C101.196 64.9498 101.228 65.0098 101.275 65.0478C101.455 65.1918 101.861 64.9438 101.999 64.8598C102.754 64.4028 103.386 63.4798 103.628 63.1828C104.944 61.5668 108.522 61.4898 110.24 62.6558C110.497 62.8298 111.004 63.2298 111.102 63.1348C111.201 63.0408 110.876 62.4858 110.567 62.1368Z" fill="#D68056"/>
<path d="M108.669 67.2488C107.133 67.5998 105.116 67.5538 103.612 67.2708C103.063 67.1668 102.661 67.6208 103.082 67.8738C103.787 68.2968 104.783 68.6618 106.142 68.6978C107.774 68.7408 108.729 68.2868 109.28 67.8078C109.609 67.5228 109.185 67.1308 108.669 67.2488Z" fill="#D68056"/>
<path d="M102.124 58.9778L110.741 56.9838C111.409 56.8288 111.828 56.1568 111.674 55.4888C111.52 54.8208 110.847 54.4018 110.179 54.5558L101.562 56.5498C100.894 56.7038 100.475 57.3768 100.629 58.0448C100.784 58.7118 101.457 59.1318 102.124 58.9778Z" fill="#102051"/>
<path d="M134.839 64.1248C134.839 65.4508 133.764 66.5258 132.438 66.5258C131.112 66.5258 130.037 65.4508 130.037 64.1248C130.037 62.7988 131.112 61.7238 132.438 61.7238C133.764 61.7238 134.839 62.7988 134.839 64.1248Z" fill="#0B131D"/>
<path d="M136.042 64.2388C136.042 64.7098 135.318 65.0918 134.425 65.0918C133.532 65.0918 132.808 64.7098 132.808 64.2388C132.808 63.7678 133.532 63.3858 134.425 63.3858C135.318 63.3858 136.042 63.7668 136.042 64.2388Z" fill="white"/>
<path d="M103.801 64.1248C103.801 65.4508 104.876 66.5258 106.202 66.5258C107.528 66.5258 108.603 65.4508 108.603 64.1248C108.603 62.7988 107.528 61.7238 106.202 61.7238C104.876 61.7238 103.801 62.7988 103.801 64.1248Z" fill="#0B131D"/>
<path d="M110.22 64.2388C110.22 64.7098 109.496 65.0918 108.603 65.0918C107.71 65.0918 106.986 64.7098 106.986 64.2388C106.986 63.7678 107.71 63.3858 108.603 63.3858C109.496 63.3858 110.22 63.7668 110.22 64.2388Z" fill="white"/>
<path d="M121.396 87.4668C119.64 87.4668 118.099 87.1828 117.069 86.9268C116.135 86.6948 115.552 85.7748 115.741 84.8308L117.478 76.1478L117.968 76.2458L116.231 84.9288C116.095 85.6108 116.516 86.2748 117.189 86.4418C119.112 86.9198 122.866 87.5008 126.395 86.0288L126.587 86.4908C124.828 87.2238 123.019 87.4668 121.396 87.4668Z" fill="#102051"/>
<path d="M161.239 462.705C149.749 461.918 139.797 470.594 139.009 482.084C138.818 484.876 139.185 487.578 140.016 490.08C142.605 497.871 149.69 503.718 158.387 504.314C161.831 504.55 165.13 503.921 168.092 502.636C168.259 501.794 169.207 501.188 170.02 501.254C170.209 501.269 170.377 501.318 170.536 501.382C176.177 497.991 180.133 492.001 180.617 484.936C181.405 473.445 172.728 463.492 161.239 462.705Z" fill="#152036"/>
<path d="M158.771 378.981C175.184 377.94 187.645 363.791 186.604 347.378C185.563 330.965 171.414 318.503 155.001 319.544C138.588 320.585 126.126 334.735 127.167 351.148C128.208 367.561 142.358 380.022 158.771 378.981Z" fill="#152036"/>
<path d="M186.427 345.678C171.658 345.222 156.407 350.855 141.678 349.519C136.765 349.074 131.848 348.754 126.927 348.518C127.127 350.352 127.192 352.13 127.043 353.951L139.799 489.383L180.538 485.8L186.632 354.515L186.427 345.678Z" fill="#152036"/>
<path d="M170.406 473.791L169.832 473.777C170.371 450.785 170.078 427.285 169.794 404.558C169.593 388.458 169.385 371.81 169.472 355.375L170.046 355.379C169.96 371.808 170.168 388.453 170.369 404.551C170.653 427.283 170.946 450.788 170.406 473.791Z" fill="#0B0C0F"/>
<path d="M124.973 100.603C124.538 100.081 124.038 99.6268 123.486 99.2528C121.739 98.0698 119.861 97.9198 118.592 98.0078L118.559 97.5088C119.906 97.4198 121.902 97.5758 123.766 98.8388C124.356 99.2388 124.892 99.7238 125.356 100.282L124.973 100.603Z" fill="#102051"/>
<path d="M122.12 93.3378C121.785 93.3378 121.441 93.3298 121.088 93.3128L121.112 92.8138C128.77 93.1738 132.211 89.1128 132.244 89.0718L132.631 89.3878C132.495 89.5568 129.322 93.3378 122.12 93.3378Z" fill="#102051"/>
<path d="M133.171 90.2108C133.116 90.1778 131.829 89.3768 131.337 87.7708L131.816 87.6248C132.252 89.0508 133.419 89.7768 133.431 89.7848L133.171 90.2108Z" fill="#102051"/>
<path d="M134.841 76.9608C140.661 76.9608 145.379 72.2428 145.379 66.4228C145.379 60.6029 140.661 55.8848 134.841 55.8848C129.021 55.8848 124.303 60.6029 124.303 66.4228C124.303 72.2428 129.021 76.9608 134.841 76.9608Z" stroke="white" stroke-width="0.6536" stroke-miterlimit="10"/>
<path d="M104.87 76.9618C110.691 76.9618 115.409 72.2434 115.409 66.4228C115.409 60.6023 110.691 55.8838 104.87 55.8838C99.0495 55.8838 94.3311 60.6023 94.3311 66.4228C94.3311 72.2434 99.0495 76.9618 104.87 76.9618Z" stroke="white" stroke-width="0.6536" stroke-miterlimit="10"/>
<path d="M124.144 66.7089C124.099 66.6839 119.58 64.2528 115.579 66.7018L115.238 66.1438C119.567 63.4948 124.261 66.0278 124.459 66.1368L124.144 66.7089Z" fill="white"/>
<path d="M125.826 60.6338H113.885V61.2868H125.826V60.6338Z" fill="white"/>
<path d="M94.7681 483.657L50.1711 480.685L38.1521 623.597H63.1991L69.3151 612.454L65.7641 610.224L94.7681 483.657Z" fill="#152036"/>
<path d="M79.6674 501.922C91.3829 497.858 97.586 485.067 93.5226 473.352C89.4591 461.636 76.6678 455.433 64.9524 459.497C53.237 463.56 47.0338 476.351 51.0973 488.067C55.1607 499.782 67.952 505.985 79.6674 501.922Z" fill="#152036"/>
<path d="M45.373 623.626L44.801 623.569L58.689 481.217L59.261 481.274L45.373 623.626Z" fill="#0B0C0F"/>
<path d="M79.6674 501.922C91.3829 497.858 97.586 485.067 93.5226 473.352C89.4591 461.636 76.6678 455.433 64.9524 459.497C53.237 463.56 47.0338 476.351 51.0973 488.067C55.1607 499.782 67.952 505.985 79.6674 501.922Z" fill="#152036"/>
<path d="M95.3132 481.241L123.557 357.522L60.1801 349.276L50.3782 478.227C64.9182 481.453 80.5132 480.912 95.3132 481.241Z" fill="#152036"/>
<path d="M92.2961 382.636C109.972 382.636 124.302 368.306 124.302 350.63C124.302 332.953 109.972 318.624 92.2961 318.624C74.6196 318.624 60.29 332.953 60.29 350.63C60.29 368.306 74.6196 382.636 92.2961 382.636Z" fill="#152036"/>
<path d="M60.1062 472.611L59.5342 472.554L74.9872 314.158L75.5592 314.215L60.1062 472.611Z" fill="#0B0C0F"/>
<path d="M180.538 485.799L180.645 497.35L179.726 623.597H151.192L139.799 496.386L138.959 485.233L180.538 485.799Z" fill="#152036"/>
<path d="M168.912 464.756C168.731 464.882 168.55 465.004 168.371 465.136C166.908 466.212 165.178 464.761 165.369 463.408C164.044 463.043 162.664 462.803 161.239 462.706C149.749 461.919 139.797 470.595 139.009 482.085C138.818 484.877 139.185 487.579 140.016 490.081C142.605 497.872 149.69 503.719 158.387 504.315C169.877 505.102 179.83 496.426 180.617 484.936C181.216 476.197 176.335 468.36 168.912 464.756Z" fill="#152036"/>
<path d="M169.854 623.611C168.23 588.815 168.792 553.281 169.335 518.918C169.488 509.212 169.646 499.176 169.755 489.279L170.329 489.285C170.222 499.183 170.062 509.22 169.909 518.927C169.366 553.281 168.805 588.806 170.429 623.584L169.854 623.611Z" fill="#0B0C0F"/>
<path d="M65.89 131.88C54.866 131.627 46.47 138.939 45.088 147.26C43.077 159.363 32.249 250.337 45.848 263.172C59.448 276.007 73.548 263.784 79.585 230.128C82.569 213.495 86.699 169.912 82.035 150.362C80.032 141.967 65.89 131.88 65.89 131.88Z" fill="#356AB0"/>
<path d="M81.555 154.509C83.8464 144.493 77.5841 134.516 67.5678 132.224C57.5514 129.933 47.5741 136.195 45.2827 146.211C42.9913 156.228 49.2536 166.205 59.2699 168.497C69.2863 170.788 79.2636 164.526 81.555 154.509Z" fill="#356AB0"/>
<path d="M66.472 232.051L65.9817 232.149L67.4014 239.245L67.8917 239.147L66.472 232.051Z" fill="#102051"/>
<path d="M56.7221 268.142C64.4536 268.142 70.7211 261.874 70.7211 254.143C70.7211 246.411 64.4536 240.144 56.7221 240.144C48.9907 240.144 42.7231 246.411 42.7231 254.143C42.7231 261.874 48.9907 268.142 56.7221 268.142Z" fill="#356AB0"/>
<path d="M189.673 137.77C189.673 137.77 233.72 211.019 242.92 254.144L223.852 280.138C202.865 275.673 185.77 225.084 177.633 205.332C175.226 199.489 173.81 193.288 173.421 186.981L157.095 154.907L189.673 137.77Z" fill="#356AB0"/>
<path d="M187.672 226.91C182.894 218.065 171.792 195.118 171.901 173.128L172.401 173.131C172.293 195.005 183.351 217.861 188.111 226.673L187.672 226.91Z" fill="#102051"/>
<path d="M173.185 187.145C172.254 185.813 171.367 183.06 170.428 180.145C169.542 177.398 168.627 174.556 167.745 173.295L168.216 172.966C169.148 174.298 170.035 177.053 170.975 179.969C171.86 182.715 172.775 185.555 173.656 186.816L173.185 187.145Z" fill="#4F2E4D"/>
<path d="M174.65 167.346C184.925 167.346 193.255 159.016 193.255 148.741C193.255 138.466 184.925 130.136 174.65 130.136C164.375 130.136 156.045 138.466 156.045 148.741C156.045 159.016 164.375 167.346 174.65 167.346Z" fill="#356AB0"/>
<path d="M226.548 280.338C236.606 280.338 244.76 272.184 244.76 262.126C244.76 252.068 236.606 243.914 226.548 243.914C216.49 243.914 208.336 252.068 208.336 262.126C208.336 272.184 216.49 280.338 226.548 280.338Z" fill="#356AB0"/>
<path d="M60.1801 386.857C59.9771 387.962 57.7951 396.288 57.3071 402.093C56.8191 407.899 57.8841 421.834 57.8841 421.834C57.4771 421.771 54.3081 423.368 53.6211 422.601C49.6221 418.13 44.4651 401.71 44.4651 401.71L48.3301 378.438C48.3301 378.438 59.8681 379.33 60.1561 379.621C60.4431 379.913 60.1801 386.857 60.1801 386.857Z" fill="#F2A981"/>
<path d="M58.8402 383.502C59.7032 384.91 61.6192 390.21 61.7152 390.785C61.8112 391.36 60.7572 402.093 60.7572 402.093L59.6072 403.531L58.3612 402.189L57.7862 398.356L58.7442 395.577C58.7442 395.577 56.9262 392.031 56.7332 391.744C56.5402 391.456 58.8402 383.502 58.8402 383.502Z" fill="#F2A981"/>
<path d="M54.132 386.194C57.4722 386.194 60.18 383.486 60.18 380.146C60.18 376.806 57.4722 374.098 54.132 374.098C50.7918 374.098 48.084 376.806 48.084 380.146C48.084 383.486 50.7918 386.194 54.132 386.194Z" fill="#F2A981"/>
<path d="M98.8121 38.4398C97.9491 44.5728 94.7881 58.4388 94.7881 57.8308C94.7881 57.2228 94.7881 32.5588 94.7881 32.5588L98.8121 38.4398Z" fill="#102051"/>
<path d="M144.809 32.5578C148.547 31.9228 160.146 22.1478 152.047 7.77284C143.948 -6.60216 103.698 -0.217161 111.748 20.1648C111.748 20.1648 114.913 8.34784 101.256 10.0728C87.5991 11.7978 83.5771 26.2928 94.7881 32.5578L93.6381 41.6978C93.6381 41.6978 109.161 39.6858 115.199 31.6358C115.199 31.6358 137.862 39.6538 141.336 40.5318L144.81 59.2848C146.169 58.4988 149.124 41.6978 149.124 41.6978L144.809 32.5578Z" fill="#102051"/>
<path d="M137.514 134.239L121.807 175.861L92.379 189.711L82.748 152.799L100.427 134.239H119.28H137.514Z" fill="#356AB0"/>
<path d="M137.514 134.239C137.514 134.239 122.956 159.408 111.565 157.003C100.173 154.598 100.427 134.239 100.427 134.239L65.8889 131.88L71.727 184.593L69.5689 225.036L65.08 277.803L63.6389 281.173L60.6459 294.2L60.554 304.347L62.602 306.919L64.5569 308.908L87.636 311.742L120.273 308.003L148.997 310.017L176.095 308.003L181.7 296.878L172.592 218.581L184.819 136.468C182.191 135.03 177.611 129.692 174.648 130.135C162.237 131.992 150.119 134.759 137.514 134.239Z" fill="#356AB0"/>
<path d="M186.973 164.629C194.239 157.363 194.239 145.583 186.973 138.318C179.707 131.052 167.927 131.052 160.662 138.318C153.396 145.583 153.396 157.363 160.662 164.629C167.927 171.895 179.707 171.895 186.973 164.629Z" fill="#356AB0"/>
<path d="M70.5949 185.41L68.6899 175.775L69.1799 175.678L70.657 183.142C71.871 177.999 72.2079 172.727 71.6599 167.456L72.157 167.404C72.75 173.106 72.3179 178.809 70.8709 184.353L70.5949 185.41Z" fill="#102051"/>
<path d="M81.555 154.509C83.8464 144.493 77.5841 134.516 67.5678 132.224C57.5514 129.933 47.5741 136.195 45.2827 146.211C42.9913 156.228 49.2536 166.205 59.2699 168.497C69.2863 170.788 79.2636 164.526 81.555 154.509Z" fill="#356AB0"/>
<path d="M64.3699 309.073L60.3069 304.442L60.3049 304.351C60.3039 304.295 60.2049 298.706 60.6789 294.581C61.1539 290.45 63.1709 283.727 63.1909 283.66L66.2129 274.892L70.7349 196.475L71.2339 196.503L66.6969 275.023L63.6669 283.815C63.6499 283.873 61.6459 290.553 61.1759 294.639C60.7389 298.443 60.7929 303.511 60.8029 304.251L64.7449 308.743L64.3699 309.073Z" fill="#102051"/>
<path d="M187.892 327.278L179.198 311.224C179.198 311.224 164.942 315.808 164.639 318.993C164.037 325.322 178.067 335.639 178.067 335.639L187.892 327.278Z" fill="#F2A981"/>
<path d="M175.447 315.222C162.483 311.628 159.752 310.047 156.014 312.203C152.277 314.359 169.095 318.24 169.095 318.24L175.447 315.222Z" fill="#F2A981"/>
<path d="M184.515 327.742C189.536 327.742 193.607 323.671 193.607 318.65C193.607 313.628 189.536 309.558 184.515 309.558C179.493 309.558 175.423 313.628 175.423 318.65C175.423 323.671 179.493 327.742 184.515 327.742Z" fill="#F2A981"/>
<path d="M180.126 337.225C173.608 333.595 165.706 326.213 163.759 318.582L164.316 318.439C166.222 325.906 173.993 333.151 180.406 336.723L180.126 337.225Z" fill="#0B0C0F"/>
<path d="M244.749 262.712C240.026 286.59 228.242 296.76 228.242 296.76C228.242 296.76 229.606 302.176 227.199 311.663C224.792 321.15 211.277 319.332 206.965 317.607C202.653 315.882 196.083 308.669 196.083 308.669L191.386 309.407C191.386 309.407 183.624 299.532 187.936 294.983C192.248 290.433 194.836 289.805 194.836 289.805L198.038 287.611C198.038 287.611 200.011 277.068 203.461 267.678C206.911 258.288 214.384 248.472 214.384 248.472L244.749 262.712Z" fill="#356AB0"/>
<path d="M227.897 307.184L227.403 307.11C228.733 298.224 224.358 288.664 216.763 283.862L217.03 283.439C224.787 288.344 229.256 298.108 227.897 307.184Z" fill="#102051"/>
<path d="M230.535 301.164L230.036 301.133C230.232 295.686 228.95 290.281 226.329 285.502L226.767 285.262C228.765 288.904 229.997 292.904 230.406 297.011L231.196 288.196L231.694 288.241L230.535 301.164Z" fill="#102051"/>
<path d="M195.31 291.119L195.054 290.689C197.627 289.152 200.817 288.227 204.533 287.94C207.551 287.707 210.597 287.902 213.563 288.128C210.656 286.059 206.824 285.325 203.358 286.218L203.233 285.734C207.116 284.731 211.45 285.696 214.542 288.249L215.151 288.752L214.363 288.691C211.154 288.443 207.832 288.187 204.572 288.438C200.934 288.719 197.817 289.621 195.31 291.119Z" fill="#102051"/>
<path d="M226.548 280.338C236.606 280.338 244.76 272.184 244.76 262.126C244.76 252.068 236.606 243.914 226.548 243.914C216.49 243.914 208.336 252.068 208.336 262.126C208.336 272.184 216.49 280.338 226.548 280.338Z" fill="#356AB0"/>
<path d="M207.171 257.936L206.687 257.811C207.263 255.586 208.662 253.539 210.525 252.195L210.971 251.873L210.92 252.42C210.773 254.016 210.08 255.545 208.991 256.716C211.441 256.454 213.917 256.317 216.389 256.338L216.387 256.838C213.674 256.821 210.986 256.981 208.321 257.295L207.517 257.39L208.127 256.858C209.275 255.857 210.063 254.465 210.34 252.969C208.809 254.237 207.668 256.017 207.171 257.936Z" fill="#102051"/>
<path d="M212.924 313.09C200.762 320.698 189.519 326.413 189.519 326.413L178.273 312.121L194.756 296.122C194.756 296.122 197.345 290.351 206.815 288.652C208.985 288.263 211.085 288.876 213.032 290.053C221.613 295.239 221.424 307.773 212.924 313.09Z" fill="#F2A981"/>
<path d="M184.515 327.742C189.536 327.742 193.607 323.671 193.607 318.65C193.607 313.628 189.536 309.558 184.515 309.558C179.494 309.558 175.423 313.628 175.423 318.65C175.423 323.671 179.494 327.742 184.515 327.742Z" fill="#F2A981"/>
<path d="M150.881 133.728C150.881 133.728 131.251 176.218 126.491 189.712C124.072 196.569 122.72 207.019 121.974 215.64C121.83 217.302 119.435 217.383 119.18 215.735C117.851 207.145 115.825 196.695 113.083 189.713C107.402 175.245 86.968 133.321 86.968 133.321L118.925 130.111L150.881 133.728Z" fill="white"/>
<path d="M122.072 219.791L121.669 219.496C121.974 219.079 123.528 216.987 124.205 216.699C124.351 216.479 124.607 214.396 124.879 212.192C125.387 208.066 126.156 201.83 127.663 196.422C129.508 189.807 132.49 182.879 135.647 175.546C136.797 172.876 137.986 170.115 139.173 167.25C143.619 156.52 152.097 133.698 152.182 133.469L152.651 133.643C152.566 133.872 144.086 156.704 139.635 167.442C138.446 170.31 137.257 173.072 136.107 175.744C132.956 183.062 129.98 189.974 128.145 196.557C126.647 201.929 125.881 208.142 125.374 212.254C124.886 216.217 124.759 217.007 124.399 217.16C123.975 217.34 122.746 218.869 122.072 219.791Z" fill="#102051"/>
<path d="M118.738 219.81C118.723 219.793 117.181 218.067 115.168 214.836C114.297 213.437 114.031 211.065 113.629 207.476C113.091 202.665 112.277 195.394 109.29 185.778C105.269 172.831 92.9651 150.729 87.0531 140.107C85.4501 137.228 84.2931 135.148 83.9111 134.347L84.3621 134.132C84.7371 134.919 85.8911 136.993 87.4891 139.864C93.4091 150.501 105.73 172.634 109.767 185.63C112.768 195.293 113.585 202.591 114.126 207.421C114.52 210.943 114.78 213.269 115.592 214.572C117.578 217.762 119.094 219.459 119.109 219.476L118.738 219.81Z" fill="#102051"/>
<path d="M124.668 144.44L118.924 130.11L141.336 124.153L144.809 134.297L124.668 144.44Z" fill="#102051"/>
<path d="M118.924 130.11L125.909 141.604L144.809 134.297L141.336 124.153L118.924 130.11Z" fill="white"/>
<path d="M114.185 144.44L119.53 131.106L97.5169 124.153L94.0439 134.297L114.185 144.44Z" fill="#102051"/>
<path d="M119.929 130.11L112.944 141.604L94.0439 134.297L97.5169 124.153L119.929 130.11Z" fill="white"/>
<path d="M120.024 308.016C119.992 307.364 116.836 242.655 118.229 232.07C118.607 229.195 119.401 224.513 120.589 218.155C120.66 217.772 120.763 217.498 120.879 217.278C120.537 217.292 120.103 217.236 119.69 216.952C118.893 216.405 118.489 215.235 118.489 213.474C118.489 209.084 115.636 199.333 113.119 190.729L112.842 189.782C109.479 178.276 86.9711 133.88 86.7441 133.433L86.5281 133.007L93.8731 134.021L97.3561 123.852L97.5821 123.912L119.426 129.718L141.497 123.852L144.982 134.03L151.279 133.44L126.733 189.783C126.613 190.533 124.431 204.135 122.22 215.687C122.091 216.362 121.864 216.714 121.653 217.009L121.654 217.1L121.561 217.136C121.359 217.417 121.185 217.682 121.08 218.248C119.894 224.597 119.102 229.27 118.725 232.137C117.338 242.677 120.491 307.341 120.523 307.992L120.024 308.016ZM87.4061 133.633C89.7381 138.245 110.124 178.7 113.322 189.641L113.599 190.589C116.125 199.225 118.989 209.013 118.989 213.474C118.989 215.034 119.327 216.093 119.968 216.537C120.406 216.841 120.9 216.793 121.149 216.74C121.125 214.661 120.92 196.41 121.151 188.448C121.388 180.313 119.331 133.505 119.183 130.172L97.6771 124.455L94.2121 134.573L87.4061 133.633ZM119.691 130.305C119.886 134.726 121.887 180.417 121.652 188.461C121.439 195.785 121.595 211.835 121.641 215.95C121.674 215.844 121.703 215.726 121.729 215.592C123.99 203.776 126.222 189.811 126.244 189.672L126.262 189.612L150.482 134.016L144.636 134.563L141.174 124.454L119.93 130.1L119.863 130.351L119.691 130.305Z" fill="#102051"/>
<path d="M124.302 154.69C125.191 154.69 125.911 153.969 125.911 153.081C125.911 152.192 125.191 151.472 124.302 151.472C123.413 151.472 122.693 152.192 122.693 153.081C122.693 153.969 123.413 154.69 124.302 154.69Z" stroke="#102051" stroke-width="0.5" stroke-miterlimit="10"/>
<path d="M124.302 165.193C125.191 165.193 125.911 164.472 125.911 163.584C125.911 162.695 125.191 161.975 124.302 161.975C123.413 161.975 122.693 162.695 122.693 163.584C122.693 164.472 123.413 165.193 124.302 165.193Z" stroke="#102051" stroke-width="0.5" stroke-miterlimit="10"/>
<path d="M124.302 175.697C125.191 175.697 125.911 174.976 125.911 174.088C125.911 173.199 125.191 172.479 124.302 172.479C123.413 172.479 122.693 173.199 122.693 174.088C122.693 174.976 123.413 175.697 124.302 175.697Z" stroke="#102051" stroke-width="0.5" stroke-miterlimit="10"/>
<path d="M74.197 310.804L72.3629 307.486C71.0029 305.661 69.887 303.646 69.075 301.532L69.5269 301.321L72.7839 307.216C72.9209 307.399 73.0599 307.58 73.2019 307.759C72.6559 303.541 72.7699 299.285 73.5429 295.086L74.0349 295.176C73.2219 299.591 73.146 304.068 73.809 308.496C74.202 308.953 74.612 309.396 75.037 309.821L74.684 310.175C74.437 309.928 74.195 309.675 73.959 309.417L74.197 310.804Z" fill="#102051"/>
<path d="M153.137 308.858L152.897 308.42C154.873 307.333 156.727 305.997 158.4 304.467C159.28 302.915 160.512 301.556 161.976 300.543L163.248 299.665L162.319 300.899C161.27 302.292 160.087 303.593 158.797 304.781C158.667 305.014 158.545 305.253 158.432 305.494C162.33 302.932 165.525 299.232 167.478 295L167.931 295.209C165.827 299.773 162.306 303.729 158.019 306.348L157.393 306.731L157.656 306.046C157.708 305.91 157.762 305.777 157.819 305.643C156.363 306.866 154.792 307.948 153.137 308.858Z" fill="#102051"/>
<path d="M101.622 308.449L101.118 308.186C97.9061 306.51 94.8581 304.504 92.0501 302.219C92.6921 304.855 94.8161 307.149 97.4131 307.929L97.2691 308.408C94.2251 307.494 91.8761 304.765 91.4241 301.62L91.3311 300.975L91.8311 301.394C94.6131 303.719 97.6441 305.764 100.844 307.478C98.9581 300.288 97.6571 292.896 96.9761 285.494L97.4741 285.448C98.1701 293.011 99.5161 300.565 101.474 307.901L101.622 308.449Z" fill="#102051"/>
<path d="M138.761 305.431L138.724 304.933C140.077 304.832 141.389 304.072 142.147 302.947L142.561 303.226C141.72 304.475 140.264 305.32 138.761 305.431Z" fill="#102051"/>
<path d="M175.949 300.985L172.016 305.379L172.389 305.713L176.322 301.319L175.949 300.985Z" fill="#102051"/>
<defs>
<linearGradient id="paint0_linear_8_194" x1="110.592" y1="85.4277" x2="157.258" y2="66.4277" gradientUnits="userSpaceOnUse">
<stop stop-color="#C45E59"/>
<stop offset="1" stop-color="#F2A981"/>
</linearGradient>
<linearGradient id="paint1_linear_8_194" x1="135.482" y1="98.0627" x2="91.1491" y2="69.0629" gradientUnits="userSpaceOnUse">
<stop stop-color="#C45E59"/>
<stop offset="1" stop-color="#F2A981"/>
</linearGradient>
<linearGradient id="paint2_linear_8_194" x1="119.798" y1="193.21" x2="119.798" y2="87.8592" gradientUnits="userSpaceOnUse">
<stop stop-color="#102051"/>
<stop offset="1" stop-color="#F2A981"/>
</linearGradient>
</defs>
</svg>
