<svg width="1886" height="2387" viewBox="0 0 1886 2387" fill="none" xmlns="http://www.w3.org/2000/svg">
    <path d="M1071.53 2087.77C1066.69 2107.55 1057.24 2150.49 1064.1 2159.65C1073.09 2171.63 1136.06 2185.79 1167.98 2191.11C1200.95 2196.6 1245.26 2191.96 1253.33 2186.69C1261.87 2181.12 1268.05 2161.47 1256.11 2156.21C1244.18 2150.95 1200.45 2130.68 1182.97 2120.69C1163.75 2109.71 1150.01 2096.95 1141.07 2086.95C1117.55 2096.02 1087.95 2091.54 1071.53 2087.77Z" fill="#1A1F24"/>
    <path d="M776.664 2097.14C770.25 2132.64 757.398 2206.85 759.69 2219.09C761.438 2228.42 757.81 2267.55 810.783 2268.18C867.233 2268.85 869.432 2250.33 872.578 2238.86C878.094 2218.75 858.091 2114.09 853.582 2091.11C829.308 2104.26 796.715 2101.06 776.664 2097.14Z" fill="#242A31"/>
    <path d="M1063.32 504.267C1062.54 503.3 1061.64 502.497 1060.6 501.842C1040.13 488.977 1015.96 481.095 998.73 476.661C995.08 481.504 969.252 514.996 949.202 520.322C950.687 563.702 951.628 593.297 953.168 638.074C953.196 638.867 952.575 639.531 951.783 639.559C950.99 639.586 950.326 638.966 950.298 638.173C948.763 593.545 947.824 564.005 946.348 520.872C945.979 520.919 945.605 520.984 945.241 521.009C886.591 524.919 822.243 478.159 819.517 476.157C785.421 482.564 729.784 496.585 709.804 522.309C709.789 522.39 709.78 522.466 709.765 522.546C699.139 532.336 661.808 600.459 624.861 654.855C626.011 656.879 627.251 658.874 628.524 660.856C647.212 689.938 678.388 714.387 701.185 730.137C704.968 732.751 708.537 735.144 711.761 737.259C715.116 732.848 718.619 727.964 722.181 722.765C721.861 722.8 721.528 722.749 721.237 722.558C720.574 722.123 720.389 721.233 720.824 720.57C739.93 691.454 759.037 662.337 778.143 633.221C782.91 625.967 787.641 618.653 789.656 610.543C790.539 607.001 790.896 603.363 790.896 599.673C790.897 594.341 790.147 588.907 789.18 583.554C784.453 557.377 774.844 532.083 760.998 509.369C760.585 508.692 760.8 507.808 761.477 507.395C762.154 506.983 763.038 507.197 763.45 507.874C777.482 530.892 787.215 556.515 792.005 583.043C792.985 588.474 793.766 594.072 793.767 599.673C793.767 603.546 793.392 607.424 792.441 611.237C790.256 619.974 785.301 627.534 780.543 634.796C767.346 654.907 754.149 675.018 740.952 695.129C740.959 695.19 740.968 695.247 740.975 695.308C747.45 750.991 753.835 802.017 751.645 864.347L786.185 911.76C786.185 911.76 803.34 927.915 809.895 938.215C816.45 948.516 811.206 973.425 801.654 980.916C792.102 988.407 775.996 992.153 769.816 993.089C763.636 994.025 744.533 992.715 743.783 987.284C743.519 985.373 746.989 983.515 751.564 981.901C749.57 980.543 747.994 978.6 748.277 975.859C748.47 973.996 751.395 972.493 755.128 971.312C754.155 970.337 753.563 969.135 753.746 967.656C753.941 966.079 756.923 964.809 760.71 963.815C755.976 957.89 751.358 951.101 750.337 946.081C749.582 942.368 750.271 939.471 750.981 937.662C749.354 936.555 747.132 935.036 744.404 933.151C733.952 987.953 714.303 1051 721.495 1059.39C722.089 1060.08 724.185 1060.72 727.514 1061.31C774.586 1069.64 1075.68 1067.69 1084.08 1057.89C1084.11 1057.86 1084.13 1057.8 1084.16 1057.77C1092.94 1046.92 1075.44 975.895 1073.59 926.042C1071.38 866.714 1074.77 822.279 1077.28 780.385C1078.49 760.285 1079.48 740.744 1079.56 720.46C1103.95 703.65 1121.29 682.235 1133.72 662.801C1134.95 660.881 1136.13 658.978 1137.27 657.103C1121.32 614.868 1095.36 527.646 1063.32 504.267Z" fill="#EF7853"/>
    <path d="M959.869 1220.75C959.869 1220.75 951.804 1294.88 940.257 1399.77L973.233 1533.09C973.233 1533.09 971.274 1628.74 974.27 1660.7C977.266 1692.66 1059.11 2084.43 1059.11 2084.43C1059.11 2084.43 1063.91 2086.02 1071.53 2087.77C1087.95 2091.54 1117.55 2096.01 1141.07 2086.95C1146.57 2084.83 1151.75 2082 1156.34 2078.21C1159.68 2068.7 1091.57 1176.25 1090.07 1116.32C1090.07 1116.32 1030.29 1187.78 959.869 1220.75Z" fill="#242A31"/>
    <path d="M727.519 1061.31C721.445 1083.67 716.538 1109.23 717.142 1132.16C719.219 1211.11 728.965 1472.51 737.481 1628.73C746.741 1798.6 751.356 2055.82 758.446 2092.63C758.446 2092.63 765.68 2094.99 776.664 2097.14C796.716 2101.06 829.308 2104.26 853.582 2091.11C855.895 2089.85 858.141 2088.47 860.285 2086.9C865.213 2076.34 912.674 1650.31 940.257 1399.77C951.805 1294.88 959.869 1220.75 959.869 1220.75C1030.29 1187.78 1090.07 1116.32 1090.07 1116.32L1089.75 1113.11L1084.16 1057.77C1084.13 1057.81 1084.11 1057.86 1084.08 1057.89C1075.69 1067.68 774.591 1069.64 727.519 1061.31Z" fill="#313942"/>
    <path d="M1028.48 277.557C1019.83 274.551 1008.42 275.418 1007.28 274.554C1002.41 270.853 1003.38 263.775 1009.29 261.829C1010.28 261.451 1019.39 262.703 1028.41 266.29C1030.66 267.182 1032.72 268.13 1034.38 269.331L1034.49 269.452C1034.45 262.455 1034.41 255.917 1034.44 250.019C1032.63 233.53 1027.8 202.493 1016.66 194.887C977.703 234.216 918.896 253.694 888.931 245.079C876.143 250.598 892.517 300.723 876.546 311.083C875.669 305.501 871.721 285.631 859.78 284.166C853.912 283.446 846.818 291.124 847.706 305.334C848.646 320.386 855.988 332.175 861.841 332.791C865.204 333.145 867.82 332.622 869.863 331.557C870.512 344.1 871.835 359.531 871.172 370.958C870.798 391.562 868.167 415.205 860.904 438.834C871.067 447.586 904.886 474.332 935.752 471.568C958.079 469.569 969.252 463.135 974.24 459.066C970.559 438.714 971.5 413.837 971.5 413.837C971.5 413.837 998.956 416.657 1015.66 405.893C1033.22 394.574 1034.37 312.676 1034.49 298.778C1034.56 292.359 1034.56 286.074 1034.54 279.99C1032.96 279.339 1031.07 278.432 1028.48 277.557Z" fill="#F4A29E"/>
    <path d="M869.864 331.556C867.82 332.621 865.205 333.144 861.841 332.79C855.988 332.175 848.646 320.385 847.706 305.333C846.818 291.123 853.912 283.445 859.78 284.165C871.722 285.63 875.668 305.5 876.546 311.082C892.517 300.722 876.142 250.596 888.931 245.078C918.896 253.693 977.703 234.215 1016.66 194.886C1027.8 202.492 1032.63 233.529 1034.44 250.018C1035.13 256.265 1035.39 260.435 1035.39 260.435C1035.39 260.435 1051.28 224.072 1038.38 181.401C1057.11 165.669 1064.6 133.456 1050.37 120.721C1036.14 107.986 971.711 159.302 920.02 133.831C905.992 126.918 899.045 155.93 899.045 155.93C899.045 155.93 891.553 148.064 878.443 152.184C865.333 156.304 831.622 189.641 828.626 224.101C826.321 250.604 836.117 262.307 836.117 262.307C836.117 262.307 834.133 288.291 838.364 308.753C845.099 341.32 862.214 370.586 871.113 372.126C871.14 371.75 871.15 371.341 871.173 370.956C871.835 359.529 870.513 344.098 869.864 331.556Z" fill="#583636"/>
    <path d="M1028.41 266.289C1019.39 262.703 1010.28 261.451 1009.29 261.828C1003.38 263.775 1002.41 270.852 1007.28 274.554C1008.42 275.419 1019.83 274.551 1028.48 277.557C1031.07 278.432 1032.96 279.338 1034.54 279.988C1034.64 280.029 1034.76 280.079 1034.85 280.118C1036.5 280.771 1036.35 271.196 1034.49 269.451C1034.45 269.414 1034.42 269.36 1034.37 269.33C1032.72 268.129 1030.66 267.182 1028.41 266.289Z" fill="#583636"/>
    <path d="M921.592 283.283C925.069 281.651 927.273 279.745 937.103 277.606C947.323 275.301 960.201 277.086 961.601 276.314C967.598 273.01 967.379 265.866 960.892 263.446C959.812 262.989 949.291 263.506 938.587 266.361C927.87 269.199 921.735 274.929 920.848 276.217C917.991 280.315 919.546 284.243 921.592 283.283Z" fill="#583636"/>
    <path d="M857.167 289.237C856.656 288.63 855.75 288.553 855.144 289.063C854.537 289.574 854.46 290.479 854.971 291.086L855.057 291.192C855.902 292.218 862.318 300.587 863.771 311.849C863.749 311.824 863.733 311.795 863.71 311.77C862.023 309.911 859.636 308.503 856.85 308.498C856.189 308.498 855.512 308.579 854.832 308.749C854.062 308.942 853.595 309.721 853.787 310.49C853.98 311.26 854.759 311.727 855.528 311.535C855.983 311.421 856.422 311.37 856.849 311.369C858.621 311.365 860.295 312.285 861.584 313.7C862.869 315.102 863.679 316.974 863.75 318.455C863.763 318.694 863.848 318.905 863.962 319.097C863.961 319.108 863.962 319.117 863.961 319.128C863.897 319.918 864.486 320.611 865.276 320.675C866.066 320.739 866.759 320.151 866.823 319.36C866.905 318.353 866.943 317.361 866.943 316.385C866.913 300.756 857.248 289.362 857.167 289.237Z" fill="#DF8080"/>
    <path d="M986.638 335.792C988.007 336.678 989.695 336.904 991.546 336.918C993.965 336.915 996.682 336.441 999.106 335.716C1001.54 334.965 1003.62 334.061 1004.94 332.772C1005.5 332.21 1005.5 331.3 1004.93 330.742C1004.37 330.183 1003.46 330.187 1002.9 330.75C1002.32 331.378 1000.45 332.335 998.28 332.966C996.105 333.622 993.585 334.051 991.547 334.047C989.99 334.062 988.727 333.761 988.232 333.404C987.572 332.964 986.681 333.142 986.241 333.802C985.8 334.461 985.978 335.352 986.638 335.792Z" fill="#DF8080"/>
    <path d="M1000.1 324.266C1000.71 323.752 1000.78 322.845 1000.26 322.242C994.821 315.884 992.001 305.843 991.898 297.042C991.888 296.249 991.236 295.615 990.444 295.625C989.651 295.636 989.017 296.287 989.027 297.08C989.165 306.437 992.034 316.978 998.078 324.105C998.592 324.708 999.498 324.78 1000.1 324.266Z" fill="#DF8080"/>
    <path d="M1062.73 544.903C1061.96 545.108 1061.5 545.895 1061.71 546.661C1065.33 560.173 1068.33 581.05 1071.13 608.943C1071.01 609.45 1070.92 609.961 1070.79 610.467C1070.64 611.083 1070.92 611.69 1071.43 612.01C1073.97 637.811 1076.35 669.364 1078.9 706.643C1078.96 707.435 1079.64 708.032 1080.43 707.978C1081.22 707.924 1081.82 707.238 1081.77 706.447C1079.12 667.874 1076.67 635.431 1074.03 609.109C1078.16 591.247 1079.12 572.986 1079.12 554.746C1079.12 550.085 1079.06 545.424 1078.97 540.772C1078.96 539.979 1078.31 539.348 1077.51 539.362C1076.72 539.376 1076.09 540.03 1076.1 540.823C1076.19 545.465 1076.25 550.109 1076.25 554.746C1076.25 569.823 1075.58 584.825 1073.03 599.527C1070.49 576.111 1067.75 558.165 1064.48 545.92C1064.28 545.154 1063.49 544.699 1062.73 544.903Z" fill="#CC4031"/>
    <path d="M1017.53 303.633C1020.63 303.633 1023.14 300.321 1023.14 296.236C1023.14 292.15 1020.63 288.838 1017.53 288.838C1014.42 288.838 1011.91 292.15 1011.91 296.236C1011.91 300.321 1014.42 303.633 1017.53 303.633Z" fill="#583636"/>
    <path d="M946.357 295.752C946.357 300.518 949.292 304.382 952.912 304.382C956.532 304.382 959.467 300.518 959.467 295.752C959.467 290.985 956.532 287.121 952.912 287.121C949.292 287.121 946.357 290.985 946.357 295.752Z" fill="#583636"/>
    <path d="M963.218 354.042C962.992 354.802 963.425 355.601 964.185 355.828C965.111 356.096 966.464 356.267 968.338 356.439C973.909 356.936 983.707 357.216 993.203 357.216C998.875 357.216 1004.43 357.116 1008.89 356.898C1011.12 356.789 1013.08 356.651 1014.66 356.478C1016.26 356.296 1017.41 356.118 1018.29 355.794C1019.04 355.512 1019.41 354.683 1019.13 353.941C1018.84 353.2 1018.01 352.828 1017.27 353.11C1016.94 353.249 1015.82 353.469 1014.35 353.624C1009.86 354.117 1001.65 354.347 993.204 354.345C986.915 354.345 980.475 354.22 975.277 353.992C972.678 353.879 970.389 353.739 968.595 353.579C966.816 353.425 965.472 353.222 965.005 353.075C964.243 352.849 963.443 353.282 963.218 354.042Z" fill="#583636"/>
    <path d="M1307.51 509.522C1305.45 506.338 1300.18 507.999 1300.18 507.999C1300.18 507.999 1299.33 501.281 1297.58 499.783C1295.84 498.285 1289.53 502.218 1289.53 502.218C1289.53 502.218 1289.97 494.976 1288.22 493.978C1286.47 492.979 1280.17 496.413 1280.17 496.413C1280.17 496.413 1293.79 448.355 1290.34 446.595C1286.9 444.836 1262.87 490.045 1262.87 490.045C1262.87 490.045 1251.89 488.547 1246.89 494.54C1242.24 500.123 1238.89 548.61 1238.45 555.223C1238.42 555.709 1238.4 555.969 1238.4 555.969L1145.51 706.545C1145.51 706.545 1140.82 686.823 1133.72 662.8C1121.29 682.235 1103.96 703.649 1079.56 720.459C1079.48 740.743 1078.49 760.285 1077.29 780.384C1087.62 802.186 1101.93 820.237 1121.54 824.158C1166.48 833.148 1215.93 778.461 1232.41 735.76C1243.11 708.041 1276.49 575.001 1276.49 575.001C1276.49 575.001 1296.49 548.57 1301.33 539.299C1310.13 522.445 1308.98 511.79 1307.51 509.522Z" fill="#F4A29E"/>
    <path d="M1301.07 527.838C1300.33 527.567 1299.5 527.951 1299.23 528.696C1298.51 530.68 1297.35 533.379 1295.17 536.414C1294.66 537.131 1294.05 537.856 1293.44 538.347C1292.82 538.849 1292.26 539.076 1291.83 539.069L1291.44 539.014C1290.97 538.876 1290.65 538.578 1290.35 537.94C1290.05 537.316 1289.9 536.413 1289.9 535.541L1289.93 534.929C1290.14 532.155 1290.98 529.422 1292.35 527.006L1289.86 525.58C1286.79 530.953 1283.46 536.328 1278.38 538.676C1277.91 538.902 1277.33 539.056 1276.97 539.049C1276.62 539.036 1276.58 538.979 1276.53 538.924C1276.48 538.896 1276.36 538.574 1276.34 538.034V538.032L1276.32 537.306C1276.3 532.144 1279.38 527.078 1282.57 522.258L1282.57 522.256C1282.59 522.228 1282.61 522.204 1282.62 522.176L1280.18 520.679C1280.05 520.873 1279.92 521.074 1279.79 521.27C1278.23 523.935 1276.37 526.429 1274.21 528.641C1272.74 530.157 1271.14 531.388 1269.55 531.543L1269.26 531.559C1268.6 531.565 1267.84 531.296 1267.33 530.884C1266.8 530.462 1266.56 529.999 1266.56 529.54L1266.57 529.48C1266.59 529.042 1266.39 528.654 1266.1 528.376C1266.55 525.923 1266.8 523.432 1266.8 520.937C1266.8 520.486 1266.73 520.038 1266.72 519.588C1268.42 520.949 1270.43 522.343 1273.03 522.376L1273.43 522.364C1275.4 522.245 1277.07 521.204 1278.24 519.825C1279.41 518.437 1280.15 516.688 1280.32 514.875L1280.33 514.873L1280.37 513.863C1280.36 510.754 1279.11 507.931 1277.77 505.457C1274.61 499.649 1270.34 494.455 1265.26 490.233C1264.65 489.727 1263.74 489.811 1263.23 490.421C1262.73 491.031 1262.81 491.937 1263.42 492.443C1268.23 496.429 1272.27 501.343 1275.24 506.828C1276.51 509.144 1277.51 511.573 1277.5 513.863L1277.47 514.607C1277.36 515.801 1276.83 517.057 1276.05 517.967C1275.27 518.886 1274.3 519.438 1273.26 519.499L1273.04 519.506C1271.36 519.545 1269.48 518.221 1267.67 516.671C1267.19 516.269 1266.72 515.862 1266.24 515.458C1266.11 515.267 1265.93 515.122 1265.72 515.016C1263.1 512.752 1260.65 510.414 1258.93 507.649C1258.51 506.976 1257.62 506.771 1256.95 507.191C1256.27 507.61 1256.07 508.496 1256.49 509.169C1258.44 512.285 1261.04 514.769 1263.69 517.059C1263.83 518.348 1263.93 519.642 1263.93 520.939C1263.93 525.824 1262.98 530.715 1261.13 535.233C1260.83 535.967 1261.18 536.805 1261.91 537.106C1262.65 537.407 1263.48 537.055 1263.79 536.321C1264.27 535.13 1264.7 533.915 1265.07 532.684C1265.22 532.842 1265.38 533.006 1265.55 533.14C1266.6 533.96 1267.9 534.427 1269.26 534.432L1269.87 534.399C1271.55 534.197 1272.93 533.437 1274.13 532.524C1273.72 534.064 1273.46 535.655 1273.45 537.308L1273.48 538.194V538.192C1273.53 538.864 1273.58 539.824 1274.3 540.738C1275.02 541.632 1276.1 541.936 1276.97 541.922C1277.96 541.916 1278.84 541.627 1279.6 541.279C1282.64 539.842 1285.03 537.646 1287.05 535.147L1287.03 535.544C1287.03 536.727 1287.21 537.983 1287.74 539.138C1288.24 540.279 1289.22 541.381 1290.66 541.781C1291.05 541.891 1291.45 541.944 1291.83 541.943C1293.2 541.937 1294.33 541.315 1295.24 540.581C1296.16 539.836 1296.9 538.932 1297.51 538.089C1299.87 534.793 1301.16 531.816 1301.93 529.68C1302.2 528.933 1301.82 528.109 1301.07 527.838Z" fill="#DF8080"/>
    <path d="M1144.53 707.448C1143.81 707.106 1142.96 707.407 1142.61 708.122C1133.62 726.896 1128.94 747.698 1128.94 768.508C1128.94 772.945 1129.15 777.382 1129.58 781.8C1129.66 782.589 1130.36 783.168 1131.15 783.091C1131.94 783.014 1132.52 782.312 1132.44 781.523C1132.02 777.198 1131.81 772.853 1131.81 768.508C1131.81 748.129 1136.4 727.74 1145.2 709.363C1145.54 708.648 1145.24 707.79 1144.53 707.448Z" fill="#DF8080"/>
    <path d="M945.241 521.009C945.605 520.985 945.979 520.919 946.348 520.872C947.824 564.005 948.763 593.545 950.299 638.173C950.326 638.966 950.991 639.586 951.783 639.559C952.576 639.532 953.196 638.867 953.168 638.074C951.628 593.296 950.687 563.702 949.202 520.322C969.252 514.995 995.08 481.504 998.73 476.66C999.016 476.281 999.179 476.06 999.179 476.06L977.703 455.584C977.703 455.584 976.727 457.035 974.24 459.064C969.252 463.133 958.079 469.566 935.752 471.565C904.887 474.329 871.067 447.583 860.905 438.831C858.937 437.137 857.842 436.106 857.842 436.106C857.842 436.106 847.853 453.087 838.364 462.575C828.875 472.064 819.386 476.06 819.386 476.06C819.386 476.06 819.457 476.112 819.517 476.156C822.243 478.16 886.592 524.919 945.241 521.009Z" fill="#CC4031"/>
    <path d="M966.467 556.219C970.19 556.219 973.209 551.747 973.209 546.23C973.209 540.714 970.191 536.241 966.467 536.241C962.743 536.241 959.725 540.713 959.725 546.23C959.724 551.747 962.743 556.219 966.467 556.219Z" fill="#CC4031"/>
    <path d="M969.214 591.678C972.938 591.678 975.956 587.206 975.956 581.689C975.956 576.173 972.937 571.701 969.214 571.701C965.491 571.701 962.472 576.173 962.472 581.689C962.471 587.206 965.49 591.678 969.214 591.678Z" fill="#CC4031"/>
    <path d="M971.461 631.632C975.185 631.632 978.203 627.16 978.203 621.643C978.203 616.126 975.185 611.654 971.461 611.654C967.737 611.654 964.719 616.126 964.719 621.643C964.719 627.16 967.737 631.632 971.461 631.632Z" fill="#CC4031"/>
    <path d="M968.071 413.874C968.255 413.102 967.779 412.328 967.008 412.144C938.818 405.424 911.572 390.852 895.153 367.252C894.7 366.601 893.805 366.441 893.154 366.894C892.503 367.348 892.343 368.242 892.796 368.893C909.776 393.269 937.669 408.094 966.34 414.937C967.112 415.122 967.886 414.646 968.071 413.874Z" fill="#DF8080"/>
    <path d="M1000.28 364.157C996.204 366.027 991.693 367.123 987.276 367.122C984.429 367.122 981.623 366.67 978.976 365.689C978.232 365.413 977.406 365.793 977.131 366.537C976.855 367.28 977.235 368.107 977.978 368.382C980.977 369.494 984.126 369.994 987.276 369.994C992.167 369.993 997.06 368.792 1001.48 366.768C1002.2 366.437 1002.51 365.585 1002.18 364.864C1001.85 364.143 1001 363.826 1000.28 364.157Z" fill="#DF8080"/>
    <path d="M760.714 963.816C756.927 964.81 753.945 966.079 753.75 967.656C753.568 969.136 754.159 970.338 755.132 971.312C751.399 972.492 748.474 973.996 748.281 975.859C747.998 978.6 749.574 980.543 751.568 981.901C760.001 978.926 772.254 976.796 772.254 976.796C772.254 976.796 766.399 970.931 760.714 963.816Z" fill="#D56C60"/>
    <path d="M809.898 938.215C803.343 927.915 786.188 911.76 786.188 911.76L751.648 864.347L682.013 768.757L701.185 730.137C678.389 714.387 647.212 689.938 628.524 660.856C601.789 695.549 569.153 746.552 578.414 779.211C591.29 824.615 709.42 908.972 744.408 933.151C747.136 935.036 749.358 936.556 750.985 937.662C750.274 939.471 749.586 942.368 750.341 946.081C751.362 951.102 755.98 957.89 760.714 963.815C766.399 970.93 772.254 976.795 772.254 976.795C772.254 976.795 760.001 978.926 751.568 981.9C746.992 983.514 743.523 985.372 743.787 987.283C744.536 992.714 763.639 994.025 769.82 993.088C776 992.152 792.106 988.406 801.658 980.915C811.208 973.425 816.452 948.516 809.898 938.215Z" fill="#F4A29E"/>
    <path d="M678.838 765.812C664.986 749.395 643.962 739.342 622.487 738.869C621.694 738.852 621.037 739.481 621.02 740.273C621.003 741.066 621.631 741.722 622.424 741.74C643.043 742.182 663.352 751.893 676.642 767.663C677.153 768.269 678.059 768.346 678.665 767.835C679.272 767.324 679.35 766.418 678.838 765.812Z" fill="#DF8080"/>
    <path d="M723.225 722.146C729.135 713.14 735.044 704.135 740.954 695.129C754.151 675.019 767.348 654.907 780.544 634.796C785.303 627.534 790.258 619.974 792.443 611.237C793.393 607.424 793.768 603.547 793.768 599.673C793.767 594.072 792.986 588.475 792.006 583.043C787.216 556.514 777.482 530.892 763.451 507.874C763.038 507.197 762.155 506.982 761.478 507.395C760.801 507.808 760.587 508.691 760.999 509.368C774.845 532.082 784.453 557.376 789.181 583.554C790.148 588.907 790.898 594.34 790.897 599.673C790.897 603.362 790.54 607.001 789.657 610.543C787.642 618.653 782.911 625.967 778.144 633.221C759.038 662.338 739.931 691.454 720.825 720.571C720.39 721.234 720.575 722.124 721.238 722.559C721.529 722.75 721.862 722.801 722.182 722.766C722.592 722.72 722.981 722.519 723.225 722.146Z" fill="#CC4031"/>
</svg>